<?xml version="1.0"?><svg version="1.2" baseProfile="tiny-ps" viewBox="0 0 300 300" xmlns="http://www.w3.org/2000/svg" xmlns:xlink="http://www.w3.org/1999/xlink"><title>Embajada de la República Dominicana en el Estado de Israel</title><g><g fill="#fcfcfc" transform="matrix(.1 0 0 -.1 0 300)"><path d="M0 1500V0h3000v3000H0V1500z"/></g><g fill="#c2c5c8" transform="matrix(.1 0 0 -.1 0 300)"><path d="M1383 2970c-117-10-229-33-345-71l-91-29-117-61-116-60-88-66c-48-36-125-103-170-148l-81-82-67-94c-124-174-203-356-250-573l-22-101v-370l22-102c42-195 118-375 229-541l58-87 120-121 120-121 101-66c115-76 231-133 361-176l91-31 117-20 117-20h266l114 19 113 20 95 31c124 40 256 105 370 181l92 62 95 91 96 91 74 99 74 100 59 118 60 119 29 97c17 53 38 138 48 187l17 90v330l-17 92c-37 200-116 395-229 564l-62 94-101 104-100 103-84 64-85 63-115 60-116 59-91 30c-121 41-220 60-362 72-64 5-121 9-127 8-5 0-51-4-102-8zm354-154c-3-7-9-35-12-61l-8-47 14-9 14-9h-36l-5 14c-3 8 0 40 6 70l11 56h21l-5-14zm-544-29l-4-22 14-43c8-23 13-42 12-42-2 0-11-3-21-7l-17-6 7 11 7 11-15 55-14 55 12 5c21 8 23 6 19-17zm65-5l3-22h-13l-13-1 35-28c46-39 35-47-17-12l-41 27 17 11 16 11-13 22-13 22 18-4 18-3 3-23zm607-1c-4-9-11-37-17-63l-11-48h-25l15 42c8 23 15 54 16 68l2 27 13-5 13-5-6-16zm-467-10l-3-16-25-2-25-2 25 7 25 8-13 8c-6 4-12 11-12 16v9l15-6 16-6-3-16zm130-4l3-28-12-15-11-14h-48v-14c0-8 6-17 13-19l12-5-20-1-20-1v66l-1 65 41-3 40-3 3-28zm62-7v-40h40l6 24 6 25-7 10-6 11h26v-88l-30 5c-16 2-36 6-42 9l-13 3 2 41 1 40h17v-40zm-247 6l-5-24 23-16c27-19 19-32-10-16l-21 11v28c0 23 7 41 15 41 1 0 0-11-2-24zm435 2c23-23 8-78-22-78h-10l12 12c7 7 12 22 12 35v22l-17 10-18 10 16 1c8 0 20-5 27-12zm157 2l6-10h-15c-9 0-16 5-16 10 0 6 4 10 9 10 6 0 13-4 16-10zm-965-97c14-31 26-60 28-64 2-3-4-9-13-13l-16-6 6 10 6 10-29 55c-27 49-30 65-13 65 3 0 17-26 31-57zm946 41c-3-9-9-27-12-40s-11-24-16-24h-10l6 16c3 9 9 27 12 40s11 24 16 24h10l-6-16zm-826-34l20-40h-26l-13 35-13 36-21-6-22-6 15 10c8 6 21 11 27 11h13l20-40zm887 12c-20-22-22-43-5-60l12-12h-10c-16 0-34 22-34 41v18l22 15c30 21 35 20 15-2zm48-2l6-10h-10c-5 0-13 5-16 10l-6 10h10c5 0 13-4 16-10zm-981-35l-6-15h36l-12-12-12-12-11 11-12 12 6 15c4 9 9 16 11 16 3 0 3-7 0-15zm1072-9l5-14-16-31c-8-17-12-31-9-31 4 0 5-2 2-5-2-3-19 2-36 11l-32 15v15c0 8 5 14 10 14 6 0 10-7 10-16v-15l18 3 17 4-2 12c-2 7 2 12 7 12 14 0 12 27-2 33l-13 5 18 1 18 1 5-14zm-1231-26l6-10-7-11-7-12-9 17-10 17-14-12c-8-6-14-16-14-21v-10l14 5 14 5-2-16-1-17 22 1h22l-5-8c-3-4-16-8-29-8h-24l-11 19c-14 27-13 37 6 55 18 18 40 21 49 6zm1372-21c-8-5-26-25-38-45l-22-37 12-19 12-19-30 22-30 22 13 11c7 6 25 27 39 47l27 36-8 8c-4 4 4 2 17-5l24-12-16-9zm-1487-26c14-21 32-45 42-54l16-17-19-5-19-5 4 7c3 3-4 17-14 30l-17 24-17-6-16-6v-19c0-24 19-42 45-42h20l-14-9-14-9-16 6c-35 12-41 54-14 85l18 19-17 12-18 13 7 6c11 12 18 8 43-30zm1541-10l9-24-11-22c-13-23-28-37-43-37h-9l15 18c9 9 19 27 22 39l7 22-11 22-12 21 12-7c6-4 15-18 21-32zm-620-18c324-56 608-267 759-561 44-86 84-202 95-277l7-47 17-9 16-10v-282l-17-10-18-10v-18c0-9-9-53-21-97l-20-79-48-100-48-100-60-80-60-81-70-64-71-64-91-57-91-57-87-32c-49-17-117-38-153-46l-65-15-115-5-115-6-97 16-97 16-95 34c-272 97-476 284-602 551l-44 93-20 78c-11 42-20 85-20 95v18l-17 10-18 10v282l17 10 18 10v23c0 36 45 183 79 259 17 37 51 99 76 137l45 70 80 84 81 84 72 50c129 89 265 147 413 176l69 14 116 1 116 1 84-15zm650-81l-23-16 4-29 4-29-13 11c-7 7-13 18-13 27 0 21 29 52 49 52h15l-23-16zm49-28c0-22-17-46-32-46-5 0-1 11 8 25l16 25-6 15-6 16 10-6c6-3 10-16 10-29zm-1725-4l32-29-24-21c-14-12-31-22-39-22h-14v14c0 8 5 18 10 21l10 6-1-8c-1-4-1-12 0-17l1-8 15 12 15 13-25 25-25 25-16-19-15-19 7 15c10 20 25 40 31 40 3 0 20-13 38-28zm-100-66l54-44-14-5-13-6-18 20-17 19h-37v-19c0-10 7-24 15-31l15-12 22 5 21 6-16-16-16-17-26 12-25 12v28c0 15 5 33 11 39l11 11-21 14-21 15 7 6c10 10 9 10 68-37zm1901 12c31-30 30-39-5-71-37-33-50-22-15 14l26 27-6 11c-12 18-33 12-54-14l-20-25-4 12-5 13 26 26c33 33 29 33 57 7zm36-112l-30-35-11 13-10 12 30 18 31 18-6 21-5 20 16-16 16-16-31-35zm-2002-16l27-19 8 7 8 7-7-12c-10-18-31-16-51 3l-16 16-14-6-15-5v8c0 26 24 27 60 1zm2110 10c0-5-4-10-10-10-5 0-10 5-10 10 0 6 5 10 10 10 6 0 10-4 10-10zm-36-19l6-9-36-22-35-23-12 12-11 11h15c7 0 25 9 39 20 29 23 27 22 34 11zm-2071-44l7 6v-10c0-13-25-24-34-16-3 4-6 13-6 21v14l13-11 14-11 6 7zm-133-7c0-5-4-10-10-10-5 0-10 5-10 10 0 6 5 10 10 10 6 0 10-4 10-10zm2245-19c-2-5-18-14-35-21l-30-12v-23l-10 15-9 14 37 22c35 20 58 22 47 5zm-2131-42c5-5 7-11 4-14s-26 7-52 23l-45 29 6 6 6 7 36-22c20-12 40-25 45-29zm2156 4v-18l-34-22-35-22-4 12-4 12 29 12 28 12v16c0 8 5 15 10 15h10v-17zm-2233-35c18-7 33-16 33-20 0-12-18-10-51 7l-29 16-10-23c-5-13-9-18-9-11-1 20 11 43 22 43 6 0 26-5 44-12zm2313-18c0-5-4-10-10-10-5 0-10 5-10 10 0 6 5 10 10 10 6 0 10-4 10-10zm-78-45l-37-21-7 10-7 11 34 13 35 14v23l10-15 9-14-37-21zm-2235 9l15 6-4-12c-3-7-11-13-19-13h-14l-2 25-2 25 6-18 5-18 15 5zm-39-46c7-7 12-16 12-21v-9l-15 12-15 12-25-4-25-5v7c0 22 48 28 68 8zm2340-10c7-7 12-19 11-27v-16l-9 23-9 22h-13c-21 0-36-14-47-40l-10-25v26l-1 25 12 12c7 7 21 12 33 12s26-5 33-12zm-2342-47l14 11v-10c0-5-6-14-12-19l-13-10-61 22-60 21 4 12 3 11 56-24 56-25 13 11zm2370-78l6 16-8 12-7 12 11-7 12-7v-47l-24-6c-13-3-31-9-40-12l-16-6v10c0 6 10 14 21 17l21 7-16 17-17 16-9-15-10-15v16c0 9 3 19 7 22l7 7 28-26 27-27 7 16zm-2389 2l-4-10-38 3-38 4-8-14-9-13v16c0 24 10 29 57 26l43-2-3-10zm-41-51l24-6v-26l-31 15-31 15-10-10-11-11 6-15 6-16 23-1c13-1 27-1 31 0l9 2-5-13-4-13-14 4c-8 2-26 4-41 5l-28 1 6 35c4 19 9 39 11 43l5 8 15-5c8-4 26-9 39-12zm2471-63l5-39-34-7c-18-4-36-13-40-19l-8-11v45h61l6 16 6 15-11 11-10 10-31-10-31-11v29h59l6 11c10 16 17 4 22-40zm-2595-77l-5-26 14-9c8-5 20-9 27-9h12l1 28 2 27 4-29 5-28 29 4 29 5v-36l-30 4c-16 3-43 7-59 9l-28 5-9-9-9-9 3 49c2 28 7 50 12 50h7l-5-26zm116 1c-3-3-9 2-12 12l-7 18 12-12c7-7 10-15 7-18zm2446-31l6-15-11 7-11 7-9-14-9-14v45h14c8 0 17-7 20-16zm53-38l-6-14-40-4-41-4v8c0 12 22 21 51 20l29-1 1 17 1 17 5-13c3-7 3-19 0-26zm-247-976c0-20-14-13-53 25-23 23-48 44-56 47l-15 4 8 12 7 12 55-46c30-26 54-50 54-54zm-84-1l6-11-18-16-18-17 13 17 12 16-11 7c-15 9-30-3-30-25v-20l25-6c14-3 32-4 40 0l15 5v-9c0-5-12-13-27-16l-26-7-16 10c-9 6-17 20-19 32l-4 22 12 15c15 17 36 18 46 3zm-70-99l34-29-20-11-20-11 2 13 3 13-17-1-16-2 4 13 5 13-11 7-11 7-17-13-17-14 19 23c11 12 21 22 24 22 2 0 20-13 38-30zM666 511v-19l-13 5-13 5v-19c0-10 5-24 12-31l12-12h-12c-12 0-32 31-32 49 0 11 28 41 39 41 4 0 7-8 7-19zm43 1l10-18-9-14-9-15-13 13-12 12h24v14c0 8-6 17-12 19l-13 5 12 1c7 1 17-7 22-17zm1571-37l-13-16 23-24 22-24-7-11-7-11-25 33-24 33-11-3-11-3 12 15c7 9 17 14 21 11s11 2 14 11c4 9 9 14 13 11 3-4 0-14-7-22zm101-18l-9-9-11 6c-6 4-11 14-11 22v14l20-12 20-12-9-9zm-1611 6c0-4-26-44-46-72-2-1-7 0-13 4l-11 6 20 21c19 20 24 33 21 50l-1 7 15-5c8-4 15-8 15-11zm46-27l6-15-25-36-25-37-6 10-6 10 20 25c23 29 25 43 8 50l-13 5 18 1 18 1 5-14zm1394-6v-10h-45l15 10c19 13 30 13 30 0zm-96-42c11-23 27-49 36-58l18-18-25-11-24-11 6 10 7 11-31 53c-27 48-30 67-12 66 3 0 15-19 25-42zm133-4l5-14-12-15c-7-8-20-15-29-14h-16l23 9c12 5 22 14 22 19v10l-37 3-36 3-4 10-3 11 41-4 40-4 6-14zm-1207-8c0-1-12-31-28-67l-27-66-11 4-11 4 24 50c14 28 25 58 26 68l1 19 13-5c7-3 13-6 13-7zm-136-17l-7-11 14-9c8-5 18-9 23-9h8l-5 19-5 20 14-6 14-5v-38h-16c-8 0-24 5-35 10l-19 11v-19c0-10 5-23 12-30l12-12h-10c-17 0-34 23-34 45 0 21 17 45 33 45h8l-7-11zm1006-72c7-27 19-55 27-63l14-14h-38l-9 33-10 32h-39l-3-27-3-26 23-16 22-16h-43l-11 21-12 21 6 24 6 24 25 6c29 7 31 16 10 37l-15 15 13 5c17 6 22-1 37-56zm-741 37c2-2-3-4-11-4h-16l-6-16c-10-25-7-32 14-39 11-3 20-11 20-16v-9l-20 12-19 12-7-6c-3-4-7-18-8-32-1-28-2-29-31-16l-20 9h12l12 1 15 51c9 28 13 56 10 61l-6 9 29-7c15-4 30-8 32-10zm857-6l7-11-18-13c-10-7-23-15-29-18l-11-4 15-11 15-11 18 4 17 4-6-9c-3-5-18-9-34-9h-28l-6 16c-9 25-7 49 6 62 15 15 45 15 54 0zm-816-2c0-3-4-7-9-11l-10-5-6 10-6 10h15c9 0 16-2 16-4zm410-85c0-33 3-67 6-75l6-16-13 5-14 5-1 32-1 31-19 15-19 15 18-6 17-6v47l-12 5-13 5 23 1 22 1v-59zm-335 19l7-11-26 7-26 6v-7c0-4 12-19 26-32l27-25-16-15-15-15-21 7c-11 3-21 11-21 16v9l20-12 19-12 8 8 8 8-22 18c-23 18-29 40-16 53 10 11 41 8 48-3zm93-11h17l-22-9-23-9v-60l18-4 17-5-27-1-28-1v98l13 5c6 2 14 0 15-4 2-5 11-9 20-10zm370-1c7-7 12-22 12-34v-22l-14-11-13-11 5 25 4 25-12 15c-16 20-39 19-47-1l-6-15 22-29 21-29-22 8-23 8-3 27-3 27 12 15 11 14h22c12 0 27-5 34-12zm-256-53l3-46-15 3-15 3 3 37 3 37-28 4-28 4 36 2 37 1 4-45zm60 16l-4-29 23-16 23-16h-44l-11 24-11 23 11 22c16 28 18 27 13-8zm-371-5l-12-14-22 6-22 6 30 7c17 4 32 7 34 8 2 0-2-5-8-13zm266-17l-18-11 12-14 11-14h-15c-9 0-19 5-23 12l-7 11 18 14c11 7 24 13 29 13l11-1-18-10zm17 2597c-3-8-4-23-2-33l3-18 21-3 21-3 5 19 5 19-9 17c-11 20-37 21-44 2zm-106-324l-67-7-16-16c-9-9-17-25-18-37l-1-22h-46c-103-1-252-49-326-105l-33-25 2-26 2-26-65-26c-77-32-140-68-140-80v-10l46 6 47 5-28-47-27-47 63 35 64 35 70 17 70 17 43 24 44 25-4 28-4 28 55 18 56 18 120 1h120l13 8 12 8v79h170v-79l13-8 12-8h240l57-19 58-19-6-22-5-22 29-25 30-25 100-27 99-28 44-28c24-16 45-28 47-26s-8 23-23 46l-27 42 46-4 46-3v7c0 14-65 52-134 78l-71 26 3 24 2 23-17 20c-10 10-43 32-73 47l-55 27-70 16c-38 8-98 18-132 22l-63 7v48l-24 15-23 16-129 3c-71 3-159 1-196-2zm-314-454l56-63v-727l16-34 16-34 32-23 31-22 127-5 126-5 26-24 25-24 19 23 19 24 129 6 129 6 27 18c15 10 38 34 50 55l23 36 3 370 3 369 50 58 50 58H988l56-62zm526-17v-68l-25 5-25 4v38h-50v-40h-40v-50h41l-3-82-3-81-12-4-12-4-15 30-16 30v291h160v-69zm0-188v-78l-25 30-24 30-1 48v47h50v-77zm-225-63c10-11 16-20 13-20s-13 9-23 20-16 20-13 20 13-9 23-20zm213-57l-12-15-10 15-11 14-19-3c-10-1-24-8-30-15l-11-12 14 8 14 8-7-12-7-11-10 5c-5 4-9 14-9 24v18l38 24 37 25 18-29 18-29-13-15zm98 49l-18-17 12 23c6 13 14 21 18 18 3-4-2-14-12-24zm-232-27l5-15h-9c-6 0-10 7-10 15s2 15 4 15 6-7 10-15zm-58-53l-14-14-11 6-11 7v62l25-23 25-24-14-14zm304-9l-1-58-24 30c-14 17-25 34-25 39 0 12 31 46 42 46h8v-57zm-176-38c50-83 51-85 35-85-6 0-27-14-46-31l-35-31-8 9c-4 4-22 33-39 65l-32 56 12 8 12 7-8-13-8-13 14 5c8 3 14 10 14 16 0 5 4 14 9 19l9 8-7-12-7-13h8c4 0 17 8 28 17l20 16-19-7-19-6-13 11-13 10-21-11-21-11 7-12 7-12-14 13-13 12 34 30c19 16 43 29 52 30h17l45-75zm114 40c12-19 22-40 22-47v-13l-41-22-41-23-10 6-10 6 29 19 28 19h-12c-7 0-13 5-13 11v10l10-6 11-7 14 12 15 12-6 9-5 9-29-16-28-17 3-17 3-17h-29l5 14 6 14-10-6-9-6-10 19-10 19 6 7 6 6h-26l6 6 7 7 16-14 17-14 20 28c27 35 37 34 65-8zm-418-65v-80h-80v160h80v-80zm690 0v-80h-70v160h70v-80zm-500-120l5-55 23 1 22 1v-29l-30-11-30-11 3-11c2-5 13-15 25-21l21-11-11-11c-7-7-20-12-29-12h-18l-15 22c-9 12-16 29-16 38v15l-66 60-66 60 4 33 3 34 63-57 62-57v147l23-35 22-35 5-55zm290 38v-62l65 64 65 64v-68l-64-63-64-62-12-36-12-35-23-6-23-6-24 13-23 14 25 3c35 6 57 42 25 42-8 0-15 2-15 4s-3 11-6 19l-5 14 21 6 21 6-2 60-2 61 19 15c10 8 22 15 27 15h7v-62zm-114-254c-3-8-9-14-14-14h-10l-7 114-7 115 8 13 9 13 13-114c7-62 11-119 8-127zm-114-27l3-32 28-3 28-3 6 19 5 20 29 4 29 5v-117h-14c-8 0-24-9-37-19l-24-19-24 19c-13 10-32 19-42 19h-19v149l14-5 15-6 3-31zm0 362c-18-12-31-24-28-26 6-7 66 29 66 39 0 11 0 11-38-13zm14-28c-34-19-39-30-27-50l9-14 12 8 13 8-17 12-17 13 16 6 16 6-6-9-5-10 10-6 10-6 10 6 11 7-12 14-12 14 15-5 15-6v16c0 18-4 18-41-4zm534 461c0-4 6-16 13-27 16-23 28-55 22-55-2 0-12 14-21 32l-16 31-11-19-11-19 3-32 3-33h-9c-5 0-14 5-21 12l-12 12-6-7-7-7 42-45c42-45 56-71 24-43-10 8-24 18-30 22l-13 7 6-15c3-9 10-16 15-16s9-5 9-10v-10l-25 16-25 16v-9c0-5 21-29 46-53 25-25 59-63 76-85l30-40-45 50-46 50-7-8-7-7 16-18c23-25 21-35-3-22l-20 11v-8c0-4 17-25 38-46l37-39-42 21-43 21v-10c0-5 4-10 9-10 4 0 29-18 54-40l46-41-34-33-34-34-15-53-16-53v-95l10-6 10-6v38l1 38 11-19 11-19-6-52-5-53-21-38c-21-41-27-42-12-2 4 13 11 40 15 61l7 37h-19l-21-62c-12-35-30-76-41-93l-20-30v40l-9-14-9-13-5 13-6 14-7-23-7-24-7 12-7 12-31-66-31-66-63 8c-83 9-325 9-410-1l-68-8v101h-9c-5 0-14-6-20-14l-12-14-28 29-29 29-28-15-27-14-21 11c-12 6-34 15-51 18l-30 7 27 11c26 11 48 39 48 63v11l-21-5-21-6 5 40 5 39h-12c-7 0-23-11-36-25l-23-24-10 6-10 6 21 8 22 8 20 33c25 41 25 40-5 76-31 37-31 38 0 46l25 6 15 30 16 31-27-7-26-7 7 24c4 13 10 30 13 37l5 14-34-4-33-3-4 18-3 17h16c22 0 75 28 75 40 0 6-7 10-16 10h-15l15 16c25 24 20 29-35 32l-50 2-22-12-22-11 16 24 16 24 48 6 48 5 23 28c26 29 30 46 13 46h-11l4 25 5 25-7 5c-4 3-13-2-20-10s-19-15-26-15h-14v15c0 21-10 19-38-7l-24-23 7 28c8 31 7 32-31 12-31-16-39-13-31 10l6 15h51l39 35c21 19 41 44 44 55l5 20-24-6-24-6v32h-14c-7 0-25-9-39-20-31-25-37-25-37-1 0 11-4 22-10 26l-9 6-21-40c-11-22-20-51-20-63v-23l-21-14-22-13-7 12-8 12-8-13c-4-7-8-42-9-77l-1-63-14-10-15-9-29 31-28 32-9-14c-12-20-11-66 2-91l11-21-16 6-16 6v-41l34-34 34-34h-22l-21-1 33-29c18-17 40-30 50-31 9-1 26-2 37-3l20-1 3-22 3-23-67 35c-64 33-104 44-104 27 0-4 9-25 21-46l20-39-20 6-21 5-5-8-6-9 38-25 38-26h74l6-9 5-10-55 6-55 6v-31l31-26c17-14 35-26 39-26h9l-6-15-5-16 16-18 16-18-6-6-7-7 19-6c10-4 30-17 44-30l25-22 30-5 30-4-42-2-43-1v-9c0-5 11-22 24-38l24-29-24 1h-24l-18 26c-9 14-37 48-61 75l-44 49 7-27c3-16 9-39 12-53l6-24-41 16c-23 9-44 13-47 10-4-4 7-22 24-41l30-34 12-39c18-52 52-104 91-137l33-28 22 5 22 4 42-58 42-58 44-17 43-16 34 6c19 4 50 17 68 29l34 23-1 36-1 36 58 16c67 18 95 20 104 7l6-10-36-7-36-6 15-17 15-16-10-18-10-17h8c5 0 24 4 42 10 48 13 52 4 7-15l-37-16 4-12c2-7 13-13 26-15l22-3 65 35 65 36h68l60-35 59-35h42v31l-35 15-36 15 6 9 6 9 39-14c41-14 47-11 30 15l-9 15 22 12 22 12-15 4c-8 3-24 8-35 12l-20 7 20 8 20 7 65-18c36-11 67-19 70-19s4-17 2-39l-4-38 38-24 38-23 52-1h52l29 21c15 11 45 43 65 70l38 49 26-3 26-4 43 46 43 45 22 59 22 59 29 33c17 18 28 35 25 38s-24-2-47-11l-41-16 7 35c3 20 9 43 12 52l6 17-14-13c-7-6-24-12-38-12h-25l19 14c11 7 46 19 78 26 32 8 61 18 64 23l6 10-52-5-53-5 14 8c7 5 21 9 31 9h17v20h40v20h-95l25 20 25 20h47l-12 15-12 15 12 15 12 15h-13c-7 0-23-9-35-21l-22-21-18 4-18 3 47 25c60 32 60 43 0 25l-48-14 25 22c14 12 39 32 55 44l30 22-18 1c-10 0-30-7-45-16l-27-17 50 46 50 46-12 1c-6 0-42-21-79-46l-66-46 21 31c12 16 47 52 79 80l57 51h-13c-7 0-28-11-46-25l-34-25 24 46c13 26 22 50 19 52-3 3-22-14-43-38-20-24-45-53-55-64l-18-21 11 23c6 13 41 59 76 104 36 44 63 82 60 85-8 8-50-18-93-60-24-23-43-37-43-31 0 5 20 42 45 82 46 73 48 86 11 55l-21-18 14 18c8 9 11 20 8 23-6 7-40-25-75-71l-23-30 10 21c6 12 26 42 44 65 18 24 36 50 41 57l7 12h-9c-4 0-24-15-42-32l-34-33 18 30c10 17 28 40 39 52 11 13 18 25 15 28-8 9-58-35-89-78-36-49-37-36-4 45 29 72 29 72 10 64l-15-6 10 20c5 10 10 25 10 32l-1 13-15-20c-8-11-18-18-22-15s-19-17-35-45l-28-50 7 60 7 60-9-8c-5-5-16-29-25-55l-16-47-17 52c-18 54-69 133-86 133-6 0-10-3-10-8zM814 1735c-4-8-8-15-10-15s-4 7-4 15 4 15 10 15h9l-5-15zm83-57l-5-13v50l5-12c2-7 2-19 0-25zm-101-26c-4-3-14 2-24 12l-17 18 23-12c13-6 21-14 18-18zm64-60c0-4-13-16-30-25l-30-18v31h19c11 0 23 5 26 10 7 12 15 13 15 2zm-80-35c0-13-7-32-16-43l-15-19 5 25c3 14 6 33 6 43v17h20v-23zm103-51c-16-17-29-32-30-34s-6-1-11 2l-9 5 21 45 21 45 17-16 18-16-27-31zm-44 22l-12-23-5 13c-4 13 17 46 25 38 3-2-1-15-8-28zm1219-155c6-24 9-43 7-43s-12 15-22 33l-19 32 4 19 4 18 8-8c5-5 13-28 18-51zm-1201 15l-5-13-1 19c-1 11 2 17 5 13 3-3 4-12 1-19zm1139-14c-4-9-9-15-11-12-3 3-3 13 1 22s9 15 11 12c3-3 3-13-1-22zm-1173-31l-6-15-8 14c-5 7-9 16-9 20v7l14-5 15-6-6-15zm35-28c-3-3-9 2-12 12l-7 18 12-12c7-7 10-15 7-18zm1172 15c0-5-2-10-4-10-3 0-8 5-11 10l-6 10h10c6 0 11-4 11-10zm17-82l-5-13v50l5-12c2-7 2-19 0-25zm-1237-53l13-15-17 6c-9 3-16 10-16 15 0 13 6 11 20-6zm72-57l4-37-8 5c-4 3-10 20-14 39l-6 34 8 13 9 13 2-15c1-8 3-32 5-52zm1355-34c-3-3-12-4-19-1l-13 5 19 1c11 1 17-2 13-5zm-1302-52l5-14-12 4c-6 2-18 15-27 27l-15 24 22-14c12-7 24-20 27-27zm1314 1c-18-21-35-39-35-41-1-2-24 3-50 11l-48 14 54 20c53 20 84 29 104 32 6 0-6-16-25-36zm-1264-3l6-10h-10c-6 0-11 5-11 10 0 6 2 10 4 10 3 0 8-4 11-10zm1214-66c2-2-10-4-27-4h-31l-6 10-6 10 33-7c18-3 35-7 37-9zM939 962l10-19-11-11-12-12 7-6c4-4 26-12 50-18l43-11-32-16-32-16-40 58-40 58 16 4c29 8 31 7 41-11zm1175-2l-11-11-24 10-24 10h35l34 1-10-10zm-24-25c0-3-12-23-26-45l-26-39-47 23c-25 13-53 26-61 29l-15 6h65c86-1 90 0 55 16l-30 14 43 1c23 0 42-2 42-5zm-1005-24c-2-5-14-11-26-14l-21-6 17 19 18 20 8-6c5-3 7-9 4-13zm892-598c-4-3-7-12-7-20v-14l20 11c11 6 20 15 20 20 0 11-23 13-33 3z"/></g><g fill="#a4997a" transform="matrix(.1 0 0 -.1 0 300)"><path d="M1275 2955c-326-53-612-205-843-450l-81-86-65-97c-146-219-221-434-246-705l-11-117 11-115c19-211 65-373 155-550C403 425 787 139 1245 54l100-19h320l100 19c55 10 147 34 204 52l104 34 104 54c57 30 141 81 186 113l81 58 91 90c200 197 327 420 396 691l28 114 10 120 10 120-9 111c-22 268-100 493-248 715l-60 90-88 92-87 93-105 79-106 80-111 54c-126 63-231 100-360 128l-90 19-175 4-175 4-90-14zm350-131c-23-17-32-10-15 11l12 15 11-7 10-6-18-13zm112-14l-6-30h48l11-21 11-20-16-25-15-24h-24c-14 0-31 3-39 6l-15 5 10 42c5 23 8 54 5 70l-4 27h40l-6-30zm-488 1l14-9-6-29-6-29 30-19c16-11 29-23 29-27 0-15-24-8-56 17-18 14-38 25-44 25h-11l7-22c4-13 11-26 16-29l10-6-17-7c-29-11-32-7-38 45-4 28-11 57-17 65l-12 13 34 10c43 12 50 12 67 2zm281-30l9-17-12-25-13-24-22-3-22-3v-14c0-7 6-16 13-18l12-5-30-1-30-1v125l30 5c37 7 53 2 65-19zm340 17c0-7-7-35-15-63l-15-50 5-13 5-14-16 6c-8 3-20 6-25 6h-10l15 22 16 22 6 48 7 48h27v-12zm-472-25l3-23h-53l4-12 5-13 29-6 29-6-28-8-28-7-19 17c-24 22-25 34-4 63l16 23 21-3 22-3 3-22zm196-13l-7-40h45l-4 34-4 35 19 5 19 5-5-39-5-38 10-10 11-11-44 4c-24 2-47 4-50 4-4 1-9 21-11 46l-3 45h35l-6-40zm346 9c0-5-7-9-15-9-15 0-20 12-9 23 8 8 24-1 24-14zm-959-111c15-32 26-58 24-58s-11-3-21-7l-17-6 6 10 7 11-28 56-29 55 11 11 11 11 4-13c2-7 16-39 32-70zm949 78c0-2-7-20-15-40-9-20-13-41-10-46l5-8-19 5-19 5 14 34 15 35-6 9-6 10h20c12 0 21-2 21-4zm-844-42c4-13 14-28 23-33l16-10-20-6c-11-4-30-12-43-18l-22-11-12 12-12 12 22 23c12 13 22 27 22 31v8l-27-6-28-6 23 19 23 20 15-6 14-5 6-24zm934 6l14-9-7-7-7-7-16 14-16 13-14-19c-19-25-18-31 8-55l22-20h-16c-9 0-24 7-32 16-43 42 13 107 64 74zm84-43l19-14-14-39c-7-21-14-40-15-42s-38 16-61 31l-12 8 6 15 6 15 24-6 24-6 11 7 11 7-24 18-24 19h16c8 0 23-6 33-13zm-1217-43l6-16-14-9c-8-5-18-8-24-8l-10 1 13 5c17 7 15 23-3 23h-15v-12c0-7 4-19 9-27l9-14 26 5 27 5-4-10c-1-5-12-14-24-18l-21-8-21 15-21 15v23c0 27 18 46 42 46h19l6-16zm1397-18l36-33v-44l-25-24-24-25h-19c-10 0-37 12-61 28l-42 27 13 3c15 3 68 75 68 91 0 19 18 12 54-23zm-1530 6c4-10 22-36 41-57l36-38-11-11-10-10v9c0 5-7-1-16-13l-15-22h-38l-15 22c-21 30-20 43 5 67l21 19-20 13-21 13 11 13c15 18 26 16 32-5zm965-59c41-8 111-28 157-45l84-30 81-48c198-120 334-269 430-474l40-87 24-95 25-95 15-15 15-15v-275l-20-17-20-17v-22c0-71-78-269-149-380l-50-77-81-85-81-84-72-50c-133-92-267-148-420-177l-79-15h-226l-79 15c-341 65-628 288-775 603l-40 85-26 103-26 104h-26v299l15 8 15 9 25 99 25 100 55 110 54 110 66 82 65 81 63 53c177 148 372 235 584 259l78 8 90-5c50-2 123-11 164-20zm665-85c20-29 20-34-4-58s-43-25-64-4l-16 15v48l18 10c9 6 25 11 34 11h17l15-22zm-1719-26l32-29-29-28-28-29-12 12-11 11 11 26 12 26-6 10-6 10-19-17c-23-21-25-7-2 18 21 23 19 23 58-10zm-51-95l6 6v-12c0-6-6-14-14-17s-16-14-19-25l-5-19h-52l-16 25-16 25 15 24 16 24-14 12c-8 7-15 9-15 5 0-5-2-6-5-3s-3 13 1 22l6 16 53-44 52-45 7 6zm1916-40c0-5-13-21-29-37l-30-27-9 9-10 10 30 27 30 27-15 12-15 13-24-29-25-30-10 17-10 16 29 18 29 18-3 11c-7 21-24 19-50-6l-26-24-10 10-9 9 31 33 31 32 47-50c26-28 48-55 48-59zm88-35l4-12h-32v32l12-4c6-2 14-10 16-16zm-2115-9c18-10 34-19 36-21 3-1 0-7-7-14l-11-11-14 11-14 12-6-7c-12-11-7-23 9-23h16l-4-12c-3-7-13-15-23-17l-18-3 6 36 6 36-10 6-10 6-14-18c-17-22-20-11-5 17 13 23 23 24 63 2zm2045-47l-33-32-13 15-12 15 19 8c11 4 26 16 33 27l12 20 14-11 13-11-33-31zm-2178-11c0-8-4-15-10-15-5 0-10 7-10 15s5 15 10 15c6 0 10-7 10-15zm2270-67v-16l-34-20c-32-19-46-19-46-2 0 4 14 13 30 20l30 12v14c0 7-5 16-11 20l-11 6-27-20-27-20-12 19-12 18 13-5 13-5 25 24 24 24 22-26c13-14 23-33 23-43zm-2197 30c18-11 38-28 45-36 24-31 11-32-30-2-22 16-47 30-55 30h-13v30h11c6 0 25-10 42-22zm-2-62l9 5v-9c0-5-7-15-15-22s-15-21-15-31v-19h-40v70h-10c-5 0-14-8-19-17l-10-18-1 21c0 11 5 25 12 32l11 11 35-14c19-8 38-12 43-9zm2279-16c0-5-4-10-10-10-5 0-10 5-10 10 0 6 5 10 10 10 6 0 10-4 10-10zm-40-20c0-5-15-17-32-26-18-9-36-21-39-26l-6-10-6 21-5 21 24 6c13 3 28 12 35 20l11 14 9-6c5-3 9-9 9-14zm-2302-77l10-16-10-29c-12-33-13-34-78-8l-51 20-10-5-9-6v43l15-6c8-3 22-9 30-12l15-6v31l22 15 21 15 18-10c10-5 22-17 27-26zm2321 17c4 0 13-11 19-25l11-24-9-6-10-6v42l-15 5-15 6-15-12-15-12v-49l-10 6-10 6v58l18 10c9 6 23 8 30 6 8-3 17-5 21-5zm61-142c0-7-82-51-84-45-27 66-27 87-1 87h14l11-20 11-20h29l-5 28-6 27 15-25c8-14 15-28 16-32zm-2419 18l9 5v-14c0-22-9-26-40-14l-30 11-12-12-13-13 15-9c8-5 27-10 42-10h26l-5-20-5-20-18 10c-10 6-28 10-39 10h-21v-14c0-15 21-26 51-26h19v-30l-27 7c-16 4-36 7-45 7-10 0-18 3-18 7 0 20 25 115 32 126l9 11 31-9c17-4 35-6 39-3zm2434-105c2-11 7-26 10-31l7-11-12-14-12-15h-22c-12 0-27-5-34-12l-12-12v44h23c12 0 28 4 36 9l14 9-6 15-5 15-29-6c-15-3-31-10-35-16l-8-11v12c0 6-3 18-6 26l-6 16 19-5c10-3 29-1 43 4 29 11 29 11 35-17zm-2583-83c-7-7-12-20-12-30v-18h50v40h20l-6-25-6-25h54l-4 35-4 35 10-3c6-2 11-11 10-20 0-9-1-36-2-59l-2-43-10 15-9 15H159l5 20c3 11 6 32 6 48v27h34l-12-12zm2560-53l11-26 11 4 11 4-3 24-4 24 12-11 12-12-4-23-3-24-30-3c-16-2-35-8-41-13l-12-10-4 38c-6 44-3 53 18 53h14l12-25zm-259-945c25-22 50-40 56-40 14 0 14-13 1-26l-10-10-47 43c-26 24-53 43-60 43h-12l5 15c9 22 16 19 67-25zm-19-59l6-9-21-26-20-26h17c10 0 26 7 36 17l18 16v-11c0-15-37-52-52-52-33 0-56 46-42 84l6 16h23c13 0 26-4 29-9zm-73-102c33-35 34-39 16-39-7 0-18-9-25-20l-12-20h-30v23c0 13 5 28 11 34l11 11-7 12-7 11-19-17-19-17v14c0 19 20 39 38 39 8 0 27-14 43-31zm-1700-7l22-19-6-16-6-17h-14c-8 0-21 7-28 16l-14 17 23-7 22-7v11c0 6-7 13-15 17l-16 6-14-19c-18-24-18-29 1-49 22-22 13-28-14-9l-22 15v48l22 15c28 20 31 20 59-2zm1599-31c0-5-7-12-15-15l-16-6 11-20c6-12 20-24 30-28l18-7-24-18-24-18v40l-25 19-24 19 22 21c23 21 47 28 47 13zM772 467c7-7 21-16 31-20 21-8 22-27 2-53-8-10-15-27-15-37v-17l-19 12-20 12 25 29 25 29-12 14c-16 20-22 18-42-16-10-16-15-30-11-30s5-3 2-6-15 0-25 7l-19 12 23 23c13 13 23 30 23 39 0 18 14 19 32 2zm1333-37l-6-9 26-51 25-50h13l12-1-19-14c-19-15-46-21-33-9 7 8-38 100-54 110l-12 7 24 13c29 16 32 17 24 4zm105 1c0-5-10-12-22-16l-23-8 38-4 38-4 6-16 6-16-22-19-23-18-10 6-11 7 29 12 29 13-15 5c-8 4-23 5-34 4l-18-2-11 17-11 16 13 16c14 17 41 22 41 7zm-1177-47l15-5-25-51c-13-28-25-59-26-69-1-21-3-21-32-9-11 5-15 9-9 9l12 1 21 49c11 27 21 57 21 65 0 18 2 18 23 10zm-89-17l18-13-4-20-4-19-15 4c-8 2-22 6-31 8l-18 5v-10c0-6 10-20 22-32l22-20h-14c-7 0-22 7-32 17l-18 16v46l22 15c27 19 29 19 52 3zm970-82l18-65h19l-6-11-7-10-14 5-13 5-6-9c-4-6-17-10-29-10h-24l-11 14-12 15 3 28 3 28 23 10 22 10v13c0 7-7 15-16 19l-16 6 14 8c7 5 18 9 23 9h10l19-65zm-743 44l37-12-5-13-5-13-15 14c-16 17-43 20-43 6 0-5-3-16-6-25l-6-16h52v-9c0-6-4-12-9-16l-10-5-6 10c-3 5-13 10-21 10h-14v-62l35 4 35 4-12-13-13-12-55 16-55 17 17 4 16 3 13 52c7 29 12 55 11 60-3 10 14 9 59-4zm843 5l16-6v-36l-27-7-28-7 19-13 19-14 18 10 19 9-6-15c-4-8-10-15-14-15-5 0-15-3-23-6l-15-6-21 21c-26 26-27 45-1 71 22 22 22 22 44 14zm-379-171l5-22-46 2-47 2-10 16-10 16 7 27 7 27 29 6 30 6v13c0 7-5 16-12 20l-12 7 20 7 19 7 7-56c4-31 10-66 13-78zm-347 77l5-15-17 14-16 14-7-7-6-6 23-25 23-24-6-15-6-16h-20c-11 0-26 3-35 6l-16 6 6 9 5 9 19-12c31-19 34-2 5 26l-27 27 13 15 12 15 20-3 20-3 5-15zm72 10c0-5 7-10 15-10s15-5 15-10v-11l-17 3-18 3-3-32-3-31 18-5 18-6-29 2-28 2-2 47-2 48 11 4c18 8 25 6 25-4zm388-12l12-12v-55l-19-11c-11-5-27-10-35-10h-16l-16 25-17 26 11 24 12 25h56l12-12zm-260-43l3-40 12-7 12-7-50 2-50 2-3 16-3 17 30 10c17 6 31 16 31 21v11h-55l15 10c8 6 24 9 35 8l20-3 3-40zm238 2549l-7-27 10-10 10-10 16 7 16 6-3 27-3 28-16 3-17 3-6-27zm-536 44c0-7 4-19 9-27l9-14 17 7 16 6-3 17-3 18-23 3-22 3v-13zm275-8l-7-11 6-25 7-25 17 3 17 3v60l-17 3-16 3-7-11zm-120-10l-6-10h41v10c0 6-6 10-14 10s-18-4-21-10zm-289-109c-4-7-5-15-2-18 9-9 19 4 14 18l-4 13-8-13zm994-61c0-5 7-10 15-10s15 5 15 10c0 6-7 10-15 10s-15-4-15-10zm178-39c-33-46-34-57-9-71 26-13 27-13 51 12l20 22v52l-12 12c-17 17-20 16-50-27zm-1485-18c-19-7-16-27 6-47l20-18 10 7c16 9 13 30-6 47l-18 15-12-4zm549-105l-23-12-6-27-5-26-66-7c-37-4-94-14-128-22l-61-16-69-37-69-38-1-32v-32l-83-34-84-33-21-21-20-21h84v-7c0-5-9-19-20-33-31-40-24-42 33-11l52 30 70 17c77 19 134 44 154 68l13 15-7 20-6 20 67 20 66 21h223l14 9 13 9-4 36-4 36h186l-6-30-6-30 12-15 12-15h226l66-21 67-20-6-20-7-20 13-15c20-24 77-49 154-68l70-17 53-30c57-32 62-29 32 16l-20 30 48 5 47 5-45 27c-25 15-73 37-108 50l-62 22v66l-40 25c-22 14-57 32-77 40-50 19-175 45-221 45s-57 8-65 42l-7 26-31 11-32 11-171-1h-171l-23-11zm-292-386c0-4 22-30 50-57l49-49 3-377 3-378 21-28c11-15 36-38 54-50l33-23h225l29-24 28-24 28 24 28 24h226l34 23c18 12 44 38 56 56l23 34v741l57 58 57 58H1000v-8zm570-168v-166l-17 13c-9 8 7-21 36-64l52-78-12-15c-6-8-17-14-24-14s-23-11-36-25c-13-13-29-25-36-25s-28-14-48-31l-35-31-14 11c-7 6-15 8-19 5-3-3-10 5-17 18l-11 23 15-19c9-11 16-17 16-13 0 12-40 87-46 87-2 0 0-9 6-19 5-11 10-23 10-28-1-4-7 3-14 17-8 14-12 28-9 33 2 4-5 24-16 43l-21 35v63l28-27 28-27 12 12c7 7 12 21 12 33v20l30-35 29-34-6 22c-3 12-8 22-12 22s-14 13-24 29l-17 29v302h160v-166zm-210-178c0-5-9-1-20 9s-20 25-20 34v16l20-25c11-14 20-29 20-34zm291 11l-24-22 8 15c14 26 28 41 33 35 3-3-5-16-17-28zm19-84v-66l-31 43-31 42 23 24c12 13 26 24 31 24h8v-67zm-482-60l3-83h-81v171l38-3 37-3 3-82zm692 1v-86l-40 4c-22 2-40 1-40-3 0-3-29-34-64-69l-65-63-6-26c-4-14-11-32-17-38l-10-13h-27c-15 0-32 5-38 11l-11 11 5-100 6-100-20-6c-11-4-28-15-38-26l-18-20-29 25c-16 14-36 25-44 25h-14v152l13-4 12-5 5-34 5-34 28-3 28-3 6 20 5 21h43l-13 9-13 8-6 105-6 106 8 19 8 18 7-30c4-16 8-51 9-77l1-47 21-6 21-7 15 15 15 15-21 11-21 12v39h30v119l30 21 29 21 3-61 3-61 63 58 63 58 6 53 6 52h67v-86zm-500-126v-48h51l-3-17-3-18-23-10-22-10v-27l20-5 21-6-4-11c-2-6-14-12-26-14l-23-4-18 17c-10 9-21 28-25 42l-6 25-59 55-60 55v82l58-57c32-31 61-57 65-57h7v73l1 72 24-45 24-45 1-47zm90 487v-25h-40v-40h40v-160l25 12 25 11v137h40v40h-40v50h-50v-25zm63-290v-14l9 5 8 5-5 10c-9 13-12 11-12-6zm-128-45l8-13-15 5-15 6v-14c0-18 11-18 26 0l12 14-12 8-12 7 8-13zm595 395c0-3 7-20 16-36 21-42 11-47-14-8l-20 33-7-36-7-36 7-22 7-21-31 16-31 16v-10c0-5 15-22 34-39 19-16 40-40 46-52l12-23-33 23-34 24 19-22c11-12 17-24 14-27s-11 1-18 10c-7 8-17 15-23 15h-11l40-42c23-24 58-65 79-93l39-50-57 55c-62 59-76 62-26 5 34-39 32-44-9-18l-27 17 38-40c46-50 47-59 2-32-46 26-57 17-12-11 18-11 41-29 51-40l18-20-34-36-33-37-13-36c-7-21-16-65-19-99l-6-63h23l1 38 1 37 14-33 15-34-15-57c-12-47-51-131-60-131-2 0 5 24 15 53 10 28 18 66 18 82v30l-18-50c-19-52-69-155-75-155-2 0-2 10 1 23l5 22-11-15-11-15-1 20-1 20-13-30c-8-16-14-24-15-17 0 18-20 15-20-3 0-19-36-91-49-99-5-4-67-1-137 5l-128 12-128-12c-71-7-135-14-144-18l-15-5 7 40 6 41-6 17-7 17-14-19-14-19-28 27-29 28-33-10-33-9-29 14c-15 8-36 15-45 15h-18l20-15 19-16-20 3-20 3-3 18-4 17 30 11 29 10 12 25c15 34 14 37-8 31l-19-5-6 21-5 20 10 19 10 18h-10c-5 0-23-11-39-25l-31-26-5 9-5 9 23 11 24 11 16 32c9 18 16 33 16 35s-14 19-31 39l-31 35h15c17 0 67 38 67 51v9h-51l11 19c5 11 10 27 10 35v16l-30-6-30-6v10c0 6-3 18-7 28l-6 17 15-5 15-6 39 18 39 18-17 1c-22 1-23 9-3 32l16 17-47 7-47 7-28-21-29-22v20l-26-24c-33-30-44-31-44-4v20l8-5c5-3 19 1 33 8 13 7 28 13 34 14l9 2 4 52c1 29 6 55 9 58s3-17 0-43l-5-49 11 11 11 11h74l31 31c31 31 39 49 21 49h-10v64l-12-16c-7-8-21-18-30-21l-17-6-3 21-3 20-27-22-28-21v50l-35-20-35-21v31l22 15c12 9 32 16 44 16h22l31 35c17 20 31 40 31 45v10h-40v15c0 20-8 19-49-6-18-11-34-19-35-17s-7 14-13 28l-10 25-17-34c-10-18-18-48-19-67l-2-34h-9c-5 0-18-7-28-17l-18-16v24l-10-6-10-6 1-66 2-66-18-13-17-13-24 26c-13 14-24 30-24 34 0 5-4 9-10 9h-9l-7-34-6-35 15-31 16-31-20 6c-23 8-24 3-4-35l15-29 28-15 27-15-22-1h-23v-10c0-6 15-19 33-31l32-20 28 4 29 4 9-24c5-13 9-29 9-34v-10l-42 26c-52 30-74 40-110 49l-28 6v-8c0-5 11-26 25-46l24-36h-52l18-20c9-10 33-24 52-31l34-11 14 5 14 6 13-16 13-16-45 6-45 6-15-9-14-8 33-31c18-17 37-31 42-31h9v-50h10c6 0 10-7 10-15s4-15 9-15c4 0 22-13 39-30l32-30h24c14 0 27-4 30-8l5-8-44 1-44 2 14-28c18-35 30-42 79-49l39-5 11-19 11-19-12-4c-24-9-13-22 25-29 51-10 71-8 92 11l18 16 7-11c8-14 14-10-63-42l-63-27-35 53-35 53-23 13-23 12-19-4-19-3-42 55c-22 30-50 63-61 73l-20 19 10-42c12-47 8-56-20-41-12 6-28 11-37 11h-16l24-32c13-18 34-60 47-92l24-60 42-44 43-45 26 5 26 5 29-42c16-24 43-54 60-69l32-26h115l34 23 34 23-1 37-1 37 56 16c31 8 61 17 66 18 6 2 18-1 29-6l19-10-14-9c-8-5-25-9-39-9l-25-1 18-14 19-14-7-20-6-20 36 10c20 6 42 8 48 6l12-5-37-16c-20-9-39-20-43-26l-6-10 17-7 17-6 71 35c39 20 85 39 102 43l31 6 72-42 71-41 15 6c24 9 17 21-21 40l-37 17 10 10 10 10 27-11c15-5 32-10 37-10h10l-11 19-10 20 16 9 16 9-33 12-34 13 24 9 24 10 56-16c31-9 63-18 72-21l16-4-1-37-1-37 34-23 34-23h118l49 50c27 27 52 59 55 70l7 21 19-6 20-7 27 17c41 26 60 53 98 135 20 41 45 86 57 99l22 24-30-6c-16-3-38-9-47-12l-17-7 9 34c6 18 10 40 10 48v15l-8-10-7-10-45-2-45-2 15 5c8 3 31 14 50 24 20 10 55 21 78 25s44 11 48 16l5 9-13-1c-7 0-34-4-60-8l-47-8 4 7c3 4 18 10 34 13s44 15 63 27l33 20h-98l18 20 18 20h31l31 1-18 10-18 11 12 14c19 23 4 26-24 4-14-11-33-20-44-20l-18 1 20 15c11 9 34 23 50 31l30 14-30-5c-16-2-39-7-50-11l-20-6 50 45c53 49 51 58-5 25l-35-20 48 47c27 25 47 48 45 50-2 1-37-20-77-47l-73-50 20 28c11 15 47 54 80 86 69 65 67 74-4 20l-49-36 21 24c26 29 44 63 44 81v13l-61-65-61-65 18 30c23 40 101 141 127 166l21 19h-13c-23 0-79-40-112-78l-31-37 7 25c4 14 25 53 46 88 42 68 47 81 24 62l-15-12v25l-26-24c-14-13-37-43-51-66-14-24-27-43-29-43-8 0 39 85 72 131 46 63 43 71-8 24l-42-40 18 30c10 17 27 39 37 51 23 25 24 35 4 28-8-4-35-33-61-67l-45-61 6 30c4 16 18 53 31 83 29 65 30 69 3 45l-21-19 16 38 15 38-31-22-31-22-19-44c-10-23-20-43-22-43-1 0 1 28 6 62 4 33 6 63 4 66-3 2-13-22-22-54l-18-59-10 30c-19 53-71 148-83 153-7 2-13 1-13-3zm30-145c6-11 8-20 6-20-3 0-10 9-16 20s-8 20-6 20c3 0 10-9 16-20zM815 1720l-7-40h37l-15-10-14-9-8 12c-4 7-8 29-8 50v37h22l-7-40zm1486-23l-23-22 17 28c10 15 20 25 23 22s-5-16-17-28zm-1513-26l14-8-4-16-3-16-22 24-21 25h11c7 0 18-4 25-9zm1482-21c-6-11-13-20-16-20-2 0 0 9 6 20s13 20 16 20c2 0 0-9-6-20zM774 1547l-1-36-14-13-14-14-25 7-25 7 28 1 27 1 2 28c1 15 2 35 1 45v18l11-4 11-4-1-36zm125 1l14-22-12-4c-7-2-20-17-30-32l-17-29-13 8-13 8 16 31c9 17 16 38 16 47v15h13c7 0 18-10 26-22zm-49 1c0-6-5-20-12-32l-11-22-7 20-8 20 10 13c13 15 28 16 28 1zm1198-126c6-10 13-38 16-63l7-45-21 33c-12 17-26 32-30 32h-8l11 30c13 35 14 35 25 13zm-45-35c-5-27-23-40-23-17 0 13 20 52 25 47 2-1 1-15-2-30zm-1146 0l-5-13-1 19c-1 11 2 17 5 13 3-3 4-12 1-19zm38-18l6-10h-42l6 10c3 6 10 10 15 10s12-4 15-10zm-65-20l-11-20 6-10 6-10-11-17-11-18 6 22 6 21-11 7c-5 3-10 15-10 26v19h41l-11-20zm1200-15c0-8-4-15-10-15-5 0-10 7-10 15s5 15 10 15c6 0 10-7 10-15zm-1156-44c-5-6-33 31-33 44-1 6 8-1 19-15 10-14 17-27 14-29zm1180-23l5-23-9-9-10-10v16c0 9-3 23-6 32l-6 16h10c5 0 12-10 16-22zm-1237-47l-4-18 9-17 10-18-21 11c-22 12-28 31-10 31h11l-6 15-5 15h21l-5-19zm32-24v-22l-9 20c-5 11-9 24-9 28l-1 8 10-6c6-3 10-16 9-28zm37-43l-1-56 28-20c29-21 35-38 14-38h-14l-26 49-27 49v24c0 18 15 48 25 48 1 0 1-25 1-56zm-51-4l6-10-15 6c-18 7-21 14-7 14 6 0 13-4 16-10zm1414-100l-32-40-16 1c-9 0-34 6-56 13l-40 12 55 21c30 11 62 23 70 26s23 6 33 6l18 1-32-40zm-65-56c9-3 16-10 16-15v-9l-27 6c-16 4-35 10-43 15l-15 8 27 1c14 0 33-3 42-6zm-69-33l-10-9-40 8-40 8 50 1 49 1-9-9zm-44-65l-31-44-64 27-64 26 71 5 72 5-35 12-35 11 58 1 58 1-30-44zm265 1559c-9-9-16-25-16-36v-20l21 3 22 3 8 22 8 22-14 11-13 11-16-16zm-1696-60c0-8 5-15 10-15 6 0 10 7 10 15s-4 15-10 15c-5 0-10-7-10-15zm-116-60l-6-15 12-15c7-8 20-15 30-15h18l5 14 6 14-18 16c-22 20-40 20-47 1zm-134-269c0-8 5-18 10-21l10-6v41h-10c-5 0-10-6-10-14zm-85-86l-7-11 12-14 12-15h48v38l-16 6c-23 9-42 7-49-4zm2371-108l-6-11 11-6c15-10 25 3 12 16l-11 11-6-10zm46-243c2-7 10-15 17-17l14-4-5 13c-2 7-10 15-17 17l-13 5 4-14zM2425 609c-12-19 5-23 22-6l17 17h-16c-9 0-20-5-23-11zm-58-113c-6-16 2-28 14-20 12 7 11 34 0 34-5 0-11-6-14-14zM900 351c0-5 7-12 16-15 22-9 24-8 24 9v15h-20c-11 0-20-4-20-9zm957-77c-13-13-7-41 12-58l18-17 11 14 11 13-12 24c-13 25-29 35-40 24zm118 35c-10-15 1-23 20-15l16 6-6 10c-8 13-22 13-30-1zm-415-94l-13-16 12-25 11-26 13 5 12 4v66l-11 4c-6 2-17-3-24-12zm127 13c-2-7-1-23 4-35l8-23h41v23c0 38-41 65-53 35zm-252-57l-5-10 10-6c12-7 30 2 30 16 0 12-27 12-35 0z"/></g><g fill="#527f5c" transform="matrix(.1 0 0 -.1 0 300)"><path d="M1340 2964c-231-28-474-121-675-257l-90-61-106-106-105-105-56-80c-113-163-188-329-233-519l-25-104-9-117-9-116 9-109c20-254 97-481 230-685 220-338 547-560 953-647l101-21 175-1h175l90 18c50 10 137 33 195 51l105 34 95 48c121 61 221 129 325 219l82 72 61 77c161 200 258 396 313 634l21 86 5 172 5 172-11 83c-17 118-46 227-92 343l-39 101-55 93c-213 360-542 600-955 697l-105 25-170 4c-93 2-186 1-205-1zm285-140c-23-17-32-10-15 11l12 15 11-7 10-6-18-13zm115-14l-9-30h48l11-20 11-20-11-20c-6-11-19-24-30-30l-19-10-25 10-26 9 8 33c4 18 7 50 7 71v37h44l-9-30zm-484-29v-34l27-23c48-41 24-49-29-9-18 14-35 25-38 25s-6-11-6-25v-25l18-1h17l-20-9c-11-5-27-9-35-9l-15-1-2 51-2 50-11 15-12 14 13 4c8 2 21 7 29 10s26 4 40 3l25-2 1-34zm270 8l18-20-15-27-15-27-22-3-22-3v-14c0-7 6-16 13-18l12-5-30-1-30-1v125l30 6c17 4 33 7 36 8 3 0 14-8 25-20zm333-41l-19-63 5-14 5-13-16 6c-8 3-19 6-24 6h-8l15 31 15 30 2 40 1 39h43l-19-62zm-461 25l3-23h-53l4-12 5-13 29-6 29-5-22-8-23-7-20 6-20 6-6 25-6 25 18 20 18 20 20-3 21-3 3-22zm200-10l-3-37 19-4 18-4-4 36c-2 20-3 36-2 36s10 3 20 7l17 6-5-40-6-41 10-10 10-10-49 2-48 1-5 48-6 47h37l-3-37zm337-3l-7-12-10 10-10 10 7 12 7 12 10-10 10-10-7-12zm-938-162c-15-10-28-10-25 0 2 4-7 31-20 60l-23 52h-23l19 14 19 14 32-66 33-67-12-7zm928 125c-5-10-10-33-13-50-4-35-9-38-31-24l-13 8 11 21c6 11 11 30 11 41v21h42l-7-17zm-839-25c9-18 22-36 28-40l10-7-19-6c-11-4-30-12-43-18l-22-11-12 12-12 12 22 23c12 13 22 27 22 31v8l-27-6-28-6 24 20c31 27 38 26 57-12zm928 6c9-3 16-10 16-15v-8l-30 6-30 6v-56l18-13 17-13-13-1c-7 0-22 5-33 10l-19 11v58l18 10c20 12 34 13 56 5zm91-48l19-14-14-41-13-41h-14c-7 0-13 4-13 9s-10 11-22 13l-23 3v40l25-2c14-1 32 1 40 3l15 5-25 19-25 20h16c8 0 24-6 34-14zm213-110l3-26-25-25-25-25h-43l-36 26-37 26 38 41 37 40v40l43-35 42-35 3-27zm-1432 69l6-15-23-21-24-20 33 4 32 4v-9c0-5-11-14-25-20l-25-11-20 18-20 18v22c0 26 18 45 42 45h19l5-15zm-108-45l32-50h18l17-1-35-29c-19-16-43-30-52-30h-18l-16 25-17 26 11 24c7 14 17 25 23 25h11l-12 15-12 15-9-6-9-5v8c0 10 21 33 30 33 3 0 20-23 38-50zm985-34l99-25 101-49 102-49 81-61c197-149 339-365 396-602l20-84 14-11 15-10v-290l-15-11-15-11-11-49c-20-92-52-179-103-276l-50-98-64-80-64-80-70-57c-38-32-107-81-154-109l-85-52-83-30c-47-17-120-38-163-48l-79-17h-260l-79 17c-43 10-116 31-163 48l-83 30-85 52c-47 28-116 77-154 109l-70 57-63 79c-103 130-169 262-210 424l-21 82-12 10-13 10-5 70c-3 39-3 107 0 153l6 82h22l27 104 26 103 41 84c22 46 59 113 83 149l42 65 86 86 85 86 64 43c130 87 304 156 457 180l59 9 125-4 125-4 98-25zm622-76l18-20-11-25c-7-14-19-28-28-32l-15-6-25 11-24 12v56l12 12c7 7 22 12 33 12h22l18-20zm-1728-20l17-20h35l-5-15c-4-8-11-15-16-15s-18-10-28-22l-19-23-12 12-12 12 11 26 12 26-6 10-6 10-19-17c-21-19-24-13-9 17l11 19h14c9 0 23-9 32-20zm-59-95c10-5 19-11 20-12 2-1-7-15-19-33l-23-31-25 3-25 3-15 27-15 27 17 19 17 19-7 6c-3 4-15 7-25 7h-18l12 19 12 20 39-32c21-18 46-36 55-42zm1932-46c0-6-13-23-30-39l-30-28-10 13-10 12 25 17 25 16v30h-14c-8 0-24-11-35-26l-20-25-10 19-10 19 24 11 25 12v20c0 27-12 25-40-5l-23-25-14 11c-7 6-13 16-13 21v9l9-5 9-6 24 29 23 29 48-49c26-26 47-53 47-60zm88-37l4-12h-32v32l12-4c6-2 14-10 16-16zm-2118-7c7-8 19-15 26-15 19 0 18-6-8-40l-22-30h-28l2 33c1 17 1 37 1 42l-2 10-19-24-20-23v19c0 39 46 57 70 28zm2071-33c-8-3-25-15-37-28l-23-22-13 16-13 15 14 5c8 3 24 15 35 27l21 21 15-14 15-14-14-6zm-2193-30l4-12h-32v32l12-4c6-2 14-10 16-16zm2254-40l17-29-38-31-39-31-7 17-6 17 10 3c6 2 21 11 32 21l22 18-7 12-8 12-34-20-34-20-10 18-9 19 30 6 29 6 6 15 6 16 12-10c6-5 19-23 28-39zm-2182 4l45-33 3-17 4-16-45 30c-25 16-52 30-60 30h-15l5 20c7 26 9 25 63-14zm-49-51l30-16 9 6 10 6v-9c0-5-7-15-15-22s-15-21-15-31v-19h-40v70h-10c-6 0-15-10-20-22l-9-23v26l-1 25 12 12c15 15 13 15 49-3zm2323-30l-6-14-13 5-14 6 5 13 6 14 13-5 14-6-5-13zm-71-38c-21-11-41-24-44-29l-6-10-7 17c-8 23-8 37 2 31 5-3 22 3 38 13l29 18 13-10 14-11-39-19zm-2303-27c11-6 24-19 30-30l10-19-12-25-11-26h-13c-7 0-33 9-59 20l-47 20-9-6-9-5v41h11c6 0 19-5 30-10l19-11v15c0 14 26 46 36 46 3 0 14-5 24-10zm2352-12c18-14 28-46 16-47-5-1-8 2-9 7 0 4-5 13-11 19l-10 13-20-11-20-11 5-24 4-25-11 4-11 4-3 28-4 29 18 13c22 16 36 16 56 1zm51-147c-6-9-19-18-29-19-10-2-25-11-31-19l-12-16-7 19c-3 10-10 29-16 41l-10 21 6 11c4 6 14 11 21 11h14l11-21 11-20 12 4 12 4-3 24-3 24 17-24 17-24-10-16zm-2416 26h13v-19c0-21 2-21-40-7l-32 12-9-14-8-13 12-8c7-4 24-8 40-8 28 0 32-6 19-27l-8-12-14 9c-8 6-25 10-37 10h-23v-29l35-7 35-6v-12c0-7-3-16-7-19l-6-7-12 10c-7 6-24 11-39 12l-28 2 7 31c3 16 9 46 12 65s11 38 17 42l11 7 25-6c13-4 30-6 37-6zm2447-118l6-32-11-13-11-14h-22c-12 0-27-5-34-12l-12-12v11c0 6-2 17-5 25l-5 13 35 1c19 0 38 3 41 7 11 11-7 27-31 27h-24l-7-11-6-11-9 13c-5 8-9 19-9 26v11l18-4c9-3 28-1 42 4 32 12 36 9 44-29zm-2592-71c-7-7-12-20-12-30v-18h52l-5 25-4 26 11-4 11-4-3-27-3-26h54l-6 35-6 35h9c16 0 19-17 13-68l-6-51-23 16-24 15-46-4-46-3 6 29c3 16 6 37 6 47v19h34l-12-12zm2589-73c1 6 0 18-1 29l-2 18 11-6 11-7v-59h-69l-8-12-7-13-7 40-7 40 11 13 11 14 28-34c15-18 28-28 29-23zm-225-965h17l-17-18-16-19-47 44-48 43-12-5c-16-5-16 0-2 26l10 20 49-45 49-46h17zm-81-21l7-10-23-25-22-24h18c10 0 27 7 37 17l18 16v-11c0-17-37-52-54-52-8 0-22 7-30 16l-16 15v28c0 15 3 31 7 34 10 11 51 8 58-4zm-80-95l16-26 15 6 14 5v-8c0-5-7-14-15-21l-15-12v8c0 5-7-2-16-14-16-23-39-29-49-12l-6 9 15 29 15 29-6 7-6 6-19-17c-24-22-32-13-12 15l15 22h37l17-26zM702 523c22-20 23-42 3-50l-16-5-19 17-20 18v-51l16-6c9-4 14-9 11-13-4-3-18 2-32 11l-25 16v49l22 15c28 20 37 20 60-1zm1598-32c0-5-7-12-15-15l-16-6 11-20c6-12 21-25 32-29l20-7-26-17-26-17v15c0 9-11 27-24 40l-24 24 22 19c22 22 46 28 46 13zM786 459c39-24 41-32 16-81l-19-36-17 10-16 9 20 26c11 14 20 32 20 39v14h-14c-17 0-48-39-40-52 7-11-3-10-24 3l-18 12 23 23c13 13 23 30 23 39 0 20 6 19 46-6zm1319-29l-6-10 28-47c15-27 31-51 36-54l10-7-21-11c-23-12-39-15-29-5 7 7-28 80-50 106l-14 16 18 11c10 6 22 11 26 11h8l-6-10zm105 0c0-5-7-10-15-10s-15-4-15-10v-10h70v-17c0-20-28-53-47-53-20 0-15 17 7 23l20 5v24l-21-5c-11-3-27-3-35 0l-14 5v17c0 9 5 22 12 29 15 15 38 16 38 2zm-1168-46c4-3-5-31-20-62-14-31-25-62-25-69 0-15-16-17-37-3l-15 10h23l22 54 22 55-7 10-6 11h19c10 0 21-3 24-6zm-101-14l19-11v-18c0-26-9-31-37-20-35 13-43 1-14-22l24-20-7-6-6-6-24 11-23 10-6 21-5 21 20 25c22 28 30 30 59 15zm1001-151l10-6-11-7c-6-4-15-5-20-1l-10 5-6-10c-3-5-17-10-29-10h-24l-11 14-12 15 3 28 3 28 23 10 22 10v13c0 7-7 15-16 19l-16 6 23 13 24 12 18-66c10-37 23-69 29-73zm-773 111c39-10 48-19 35-33-4-3-13 0-21 8-16 17-43 20-43 6 0-5-3-16-6-25l-6-16h54l-5-12-4-13-14 3c-8 2-18 4-24 5l-10 2v-50l34 2 34 1-15-14-14-14-54 16-54 16 16 9 15 8 13 45 12 45-6 17-6 16 14-5c8-3 33-11 55-17zm859-17l3-21-20-7c-12-3-21-11-21-17v-10l30 4 30 5v-8c0-10-34-29-49-29-16 0-51 38-51 55 0 8 9 24 21 36l20 20 17-3 17-3 3-22zm-403-83l7-70h19l-6-9-5-10-47 2-46 2-11 17-10 17 10 28 9 28 28 3 27 3v30l-17 6-17 6 20 8c10 4 22 8 25 8 4 1 10-30 14-69zm-249 10c8 0 14-5 14-11v-11l-14 5-14 6-6-15c-3-9-6-24-6-35v-19l18-1h17l-20-9-20-8-10 9-9 9-1 43v42l15 12 15 12 3-15 3-14h15zm-86 5v-16l-20 11c-26 14-25 2 1-26l22-23-6-15-6-16h-60l-6 11c-11 17 1 22 24 9 27-14 27-3 1 25l-21 22 7 16 6 17h58v-15zm466-20c3-13 4-32 2-42l-3-18-28-9-27-10-22 21-21 21 7 27 7 26 21 8c12 4 30 6 40 3l18-4 6-23zm-268-32l3-43h24l-15-9-14-10-11 7c-5 3-22 5-37 3l-28-3v40l30 11c17 5 30 15 30 20v11h-55l15 10c8 6 24 9 35 8l20-3 3-42zm240 2553l-11-27 11-11 11-11 16 7 16 6-3 27-3 26-12 5-13 4-12-26zm-538 42c0-7 4-19 8-26l9-13 17 7 17 7-5 14c-3 8-6 17-6 19s-9 4-20 4h-20v-12zm282-30l3-33h30v60l-18 3-18 4 3-34zm-122 12c0-5 7-10 15-10s15 5 15 10c0 6-7 10-15 10s-15-4-15-10zm-294-109c-4-7-5-15-2-18 9-9 19 4 14 18l-4 13-8-13zm994-61c0-5 7-10 15-10s15 5 15 10c0 6-7 10-15 10s-15-4-15-10zm177-41l-29-40 6-14 5-15h48l16 18 17 19v24c0 23-16 49-29 49-4 0-19-19-34-41zm-1387 35v-16l15 12c8 7 15 14 15 16s-7 4-15 4h-15v-16zm-97-51c-19-7-16-27 6-47l20-18 10 7c16 9 13 30-6 47l-18 15-12-4zm567-100c-25-9-50-35-50-53v-16l-90-12-90-12-64-23c-35-13-85-36-111-51l-47-28 5-32 5-32-76-27-77-27-30-25-30-24 43-1c23 0 42-2 42-4 0-3-10-21-22-41l-21-37 54 30 54 30 83 22 82 22 33 22 32 22v57l40 15 40 15 135 4 135 5 13 11 14 11-5 33-6 33h191l-7-30-7-31 12-14 12-15h234l62-21 62-21-2-26-3-26 32-21 31-22 99-27 98-27 38-25c41-27 47-22 17 16-11 14-20 28-20 33v7h43l42 1-27 23-27 24-79 28-79 28 1 34 1 35-60 33-60 33-61 16c-33 8-93 18-134 23l-74 7-8 32-8 31-32 11-31 11-166-1c-91 0-173-3-181-6zm172-48l4-35h-7c-4 0-9 16-11 35l-4 35h7c4 0 9-16 11-35zm45-17l-4-23v40l-1 40 5-17c2-10 2-28 0-40zm-160-10l-4-23v40l-1 40 5-17c2-10 2-28 0-40zm27 22l-10-10v40l10-10 10-10-10-10zm49-6l5-26-8 9c-4 4-11 19-15 32l-7 24 10-7c5-3 12-17 15-32zm108 5c-5-13-10-19-10-12-1 15 10 45 15 40 3-2 0-15-5-28zm36-16l-5-18v70l5-17c2-10 2-26 0-35zm55 7l5-30h-8c-4 0-9 14-11 30l-5 30h8c4 0 9-13 11-30zm131-102l12-8h-35l1 38 2 37 4-30c3-16 10-33 16-37zm31 35c-10-40-14-41-14-5v32h20l-6-27zm51-8v-30l-17-3-18-3v72l18-3 17-3v-30zm-733-4l4-30-8 5c-8 5-12 54-4 54 2 0 6-13 8-29zm27 11l10-18-8-13-8-13-5 31c-5 36-3 38 11 13zm56-13c13-20 0-16-25 8l-25 25 22-11c12-6 25-16 28-22zm688 23c-6-4-13-21-16-37l-4-30-2 38-1 37h35l-12-8zm-800-29c7-39 1-40-11-4l-11 31h8c5 0 11-12 14-27zm848-7l9 5-6 11-7 11 11-6 10-7-11-25-12-24-7 17-7 17v-19c-1-11-4-17-7-13-3 3-2 21 2 39l8 33 4-23 3-22 10 6zm-873-21l-3-17-12 33-13 33 16-16 16-16-4-17zm-31 5c6-16 8-30 4-30-3 0-12 14-18 30-6 17-8 30-4 30 3 0 12-13 18-30zm947-9c-4-17-9-30-11-27-3 2-2 19 2 36s9 30 11 27c2-2 1-18-2-36zm46-18v-38l-9 14-9 14-13-7-14-7 18 14c9 8 17 22 17 31s2 16 5 16 5-17 5-37zm26-30l-15-28-1 13c0 17 20 55 27 49 2-3-2-18-11-34zm29-12c-3-12-10-21-15-21h-8l11 24c14 29 22 27 12-3zm-255 119c0-5 5-10 10-10 6 0 10 5 10 10 0 6-4 10-10 10-5 0-10-4-10-10zm0-30c0-5 5-10 10-10 6 0 10 5 10 10 0 6-4 10-10 10-5 0-10-4-10-10zm-830-238c0-4 22-30 50-57l49-49 3-377 3-378 21-27c11-15 33-37 48-48l27-21 117-2c64-1 111 0 105 3l-13 6v148h30v-27c0-16 4-34 9-41l8-14 19 4 18 3 11 21 10 21 11-4 10-3-8 57c-4 32-11 88-14 126l-6 67-10-6-11-7 7 12 7 11 10-5 9-6v9c0 11 79 65 95 65 6 0 18 10 27 22l17 22-15 19-14 19 6-17 6-17-43-28c-23-15-56-35-73-44s-40-26-50-38c-11-12-25-21-33-21-7 0-13-4-13-10 0-13 6-13 33 1l22 10-19-15c-28-23-33-21-56 24-11 22-23 40-25 40-3 0-5-22-5-49v-50l33-3 32-3-34-33-35-34 15-9c8-5 18-10 23-12l10-3-8-12-7-12h-58l-16 30c-8 16-15 33-15 39 0 5-27 35-60 67l-60 57-1 21-1 21-5-12-5-13h-78v170h80l1-52 1-53 64-59 64-59v158l21-25 20-25-16 33-16 33 7 11 7 11-11-7-11-7 5 48 6 48-96 94c-53 52-96 98-96 102 0 14 16 10 30-6 7-8 10-15 7-15s27-34 66-76l72-76 3 16 3 16-67 88c-37 48-73 91-81 95-15 9-18 37-3 37 6 0 15-11 19-24 5-13 55-81 110-152s101-133 101-139c-1-5-5-2-11 8-5 9-15 17-21 17h-11l18-20 18-20 8 6c5 3 9 18 9 34v28l-67 114c-37 62-66 116-65 121 1 4-5 7-13 7h-15v42l12-4c6-2 17-20 24-39 6-19 37-77 68-129l56-95v305h169l3-152 3-153 63 108c34 59 65 107 68 107 5 0-16-37-97-172l-46-78-8 8c-4 4-2-3 4-15 6-13 16-23 22-23h10l-6-9-5-10 9-5 9-6 7 23c4 12 9 29 10 37s40 65 86 127 92 124 102 138c22 30 29 29 20-3l-5-22h-14c-8 0-14-4-14-8 0-5-29-46-65-92s-65-90-65-99v-15l75 74c41 41 75 80 75 86 0 11 29 28 36 21 2-2-39-47-91-101l-94-97-3-77c-2-42-2-105 0-140l3-63 64 57 65 56v38c0 21 3 45 6 54l6 16h68v-170h-65l-72-69-73-69v-14c0-7-7-24-16-37l-17-23-36 5-36 4v-199l112 4 112 3 27 21c15 11 37 33 48 48l21 27 3 378 3 377 49 49c28 27 50 53 50 57v8h-990v-8zm743-60l-5-22h-14c-18 0-18 9 3 32 20 22 24 19 16-10zm-131-304l-12-12v10c0 6 3 14 7 17 3 4 9 5 12 2 2-3-1-11-7-17zm399 293c6-13 15-38 20-55l8-31-15 20c-8 11-21 29-29 40l-14 20 8-30c5-17 18-50 30-73s19-42 16-42-19 28-36 63l-30 62 6-44 7-44-16 6c-9 4-24 10-33 13l-18 6 36-34c34-31 59-67 59-84 0-4-15 5-32 22l-33 29 16-20c9-11 20-27 24-35l8-15-19 16c-47 39-44 28 6-27 31-32 66-75 79-94l24-35-58 55-59 55 25-32c13-17 40-51 59-75l34-43-51 48c-69 62-81 60-18-3 55-55 54-60-2-28l-38 22 46-42 47-42-38-38-38-37-11-40c-6-22-13-65-16-95l-5-55 13 34 13 34 14-32 13-33-12-51c-10-44-54-137-65-137-2 0 5 27 15 61 26 84 23 107-5 33-12-33-32-77-45-97l-23-37-8 5c-5 3-11-1-14-7-3-7-4 3-1 22l4 35-11-32c-11-33-28-45-28-20 0 6-13-15-29-49l-29-61-68 10-69 9-185-5c-102-3-195-9-208-13l-24-7 7 45 7 46-10 6-10 6-12-14-11-15-30 32-29 32-7-10-8-10-30 1c-16 1-43 6-58 13-16 6-33 11-40 11h-11l20-15 19-14-22-1h-23v40l23 9c25 10 40 26 50 54l7 18-20-6-20-6-6 16-7 16 12 25 11 25-18-10c-10-6-24-17-32-25-16-20-34-20-51 0l-13 16 15-2c7-1 22-2 31-1l18 1 19 38 20 38-34 37-34 37h40l27 28 27 27-28 3-29 3 7 17c4 9 9 24 12 33l4 16-30-5-31-4v10c0 6-3 17-6 26l-6 16h58l20 15 19 14-19 1h-19l22 24 22 24-47 7-47 7-28-21-29-22v20l-27-25-27-25-12 5-13 5-12-34-13-34-8 5c-4 3-8 1-8-3v-9l-41 4-41 4-10-10-9-9 35-22 36-22 22 2c13 2 29 0 36-4l12-8v-49h-9c-6 0-12 4-15 9-10 15-104 61-126 61-25 0-25-7 0-47 20-34 19-36-15-34l-20 2 28-26 28-25h87l6-16c3-9 6-17 6-18 0-2-26-1-57 1l-58 4 43-39 42-40v-15c0-8 7-20 15-27l15-12-6-9-5-9h15c8 0 21-8 28-18 16-24 51-42 77-42h21v-23l-45 5-44 5 8-16c5-9 21-27 35-40l25-23 29 4 28 4 17-22 16-22-16-13-16-14 24-6c13-4 41-7 62-8l38-1 5 15c8 19 30 19 37 1l6-14-26-7c-14-3-45-15-69-27-25-11-46-19-48-17-1 2-17 25-35 52-18 26-43 55-57 63l-24 16-19-5-20-5-25 37c-37 53-85 108-86 96 0-6 4-25 10-44l9-33-22 7c-12 4-33 9-46 12l-24 6 26-34c14-19 33-54 43-79 22-57 66-118 101-141l27-18 21 4 20 5 31-48 31-47 34-23 34-24 56 4 55 4 32 23 33 23-3 35-3 36 65 19 65 18 25-11 25-12-31-10-31-9 1-29 1-29h12c6 0 23 4 37 10l25 9 6-9 6-10-25-12c-29-13-33-26-11-34l15-6 64 36 64 36h54l60-36 61-35 10 10 11 11 13-11 13-11v9c0 6-19 17-42 26l-42 17 11 11 11 11 36-11 37-10-6 19-6 19 17 9 17 10-31 7c-18 3-34 10-37 15l-6 9 33 6 33 6 65-19 65-19v-76l27-20 27-20 54-5 54-4 31 16 31 16 38 55 38 54 32 1h31l41 46 40 46 17 46c9 26 30 64 46 85l29 37h-16c-9 0-30-7-47-16l-31-16 7 29c4 15 9 36 13 47l5 19-12-8c-6-4-33-8-60-9l-48-1 4 7c3 5 11 8 17 8 7 0 26 7 42 16 17 9 53 23 80 30l50 13-60-4-60-4 25 11c14 6 48 22 75 35l50 24-53-3c-28-2-52-1-52 0 0 2 10 12 23 23l22 18 25 1h25l-15 10-15 9 13 13c22 22 12 29-15 9-27-18-83-36-83-26 0 2 24 18 53 35l52 31-30-7c-16-4-38-11-48-16-38-20-25 0 28 43 54 43 68 66 20 35-14-9-37-23-52-33l-28-16 60 57 60 58-30-17c-16-10-43-27-60-40-16-12-36-25-43-29l-14-8 13 23c7 13 42 53 78 88l66 64-30-21c-16-12-43-32-60-44l-30-22 21 25c24 27 58 89 52 95-3 2-31-28-63-66-58-70-82-87-49-33 10 15 47 65 82 111 34 45 59 82 54 82-13 0-72-48-110-90l-33-35 16 40c9 22 32 65 52 95l36 55-28-25c-15-14-38-44-52-67-14-24-27-43-30-43-5 0 30 65 62 115l20 30-19-15c-11-8-37-42-58-74-21-33-38-56-38-52 0 20 35 86 71 133 47 63 36 71-16 11l-36-43 17 35c9 19 28 51 42 70l25 35-49-50c-27-28-55-60-62-70l-12-20 6 35c4 19 17 59 31 89l23 55-21-20-22-19 6 18c4 9 10 25 13 35l6 17-11-15c-6-8-15-15-22-15h-11l-29-55-29-55 5 60 4 60-12-37c-7-20-15-39-18-43-4-3-16 21-28 53l-23 60-29 33-30 34 12-24zm180-114l-12-12 7 18c3 10 9 15 12 12s0-11-7-18zM900 1550l11-21-29-33-29-34-14 9-14 8 18 30c9 16 17 36 17 45v16h29l11-20zm-50-3c0-7-6-21-13-31l-14-19-7 18-6 18 11 13c14 18 29 18 29 1zm1208-150c13-43 23-97 17-97-3 0-14 18-25 40s-25 40-30 40h-9l10 30 11 30 8-5c5-3 13-20 18-38zm-52-2l-7-35h28l18-60 18-61-10-10-11-11-7 43c-8 47-22 77-44 95l-15 11 13 32c18 41 25 39 17-4zm-1136 18c0-5-5-15-10-23l-10-15v45h10c6 0 10-3 10-7zm30-43l15-10h-56l6 10c8 12 16 12 35 0zm-68-17l-10-16 5-38c3-21 2-50-1-65l-7-27-11 11-10 10 8 14c5 7 9 28 10 46l1 32h-17v50h41l-9-17zm35-40l14-21-8-5-9-5-17 30-17 30 12-4c6-2 18-14 25-25zm103-27c0-2-7-6-15-10l-15-5v9c0 6 7 10 15 10s15-2 15-4zm-117-99l-5-9-9 13c-5 8-9 21-9 29l1 15 14-19 14-19-6-10zm-29-11c-1-9 2-16 7-16s9-5 9-11v-11l-12 5c-7 2-13 10-13 18s-8 20-17 27c-10 7-18 18-18 24v10l23-15 22-15-1-16zm63-15l-2-50 29-30 30-31-11-11-11-11-27 43c-15 23-31 55-35 70l-8 27 15 21c8 12 16 21 18 21 1 0 2-22 2-49zm1386-83c-35-46-78-104-80-107-1-1-21 4-45 12l-43 15 50 2 50 2-50 15-49 15 29 16c36 19 103 40 129 41l18 1-9-12zm-143-103c0-3-21-32-46-66l-46-60-12 5c-6 3-37 16-69 29-31 13-61 28-65 32l-7 8 85-5 85-5-40 12-40 12 55 8 55 9-40 4-40 5 25 7c29 9 100 12 100 5zm-719-64l-14-9 7-28 6-29-14 19-15 19 10 18c5 11 15 19 22 19h12l-14-9zm58-36l1-11h-41l13 11 14 10-3 20-3 20 9-20c5-11 10-25 10-30zm48-2l-5-18v70l5-17c2-10 2-26 0-35zm30 0l-5-18v70l5-17c2-10 2-26 0-35zm29 18l-1-30-8 9-9 8 7 21c9 29 12 26 11-8zm40-39c-4-3-6 0-6 7v12l-8-5-9-5v64l14-34c8-18 12-36 9-39zm23 25l-1-32-8 25c-4 14-8 31-9 38l-1 13 10-6 10-6-1-32zm-309-12v-20l-10 15c-5 8-10 24-10 35v20l10-15c5-8 10-24 10-35zm37-2l-5-18v70l5-17c2-10 2-26 0-35zm290 0l-5-18v70l5-17c2-10 2-26 0-35zm33 17v-30h-17l5 30c2 17 6 30 8 30s4-13 4-30zm-418-10l5-30h-17v30c0 17 2 30 4 30s6-13 8-30zm26-1c1-37-5-35-12 4l-5 27h8c4 0 8-14 9-31zm426 9c10-39 7-44-9-14-17 33-18 36-6 36 5 0 11-10 15-22zm36-13v-35h-16l4 35c2 19 6 35 8 35s4-16 4-35zm-538-5l5-30h-9c-4 0-8 6-8 14s-3 21-6 30l-6 16h20l4-30zm-55-17l1-38-8 25c-11 34-12 50-2 50h8l1-37zm28 28l5-10-10-6-10-6v15c0 18 6 21 15 7zm589-6l-6-15 12-15 12-15h-11c-6 0-14 7-17 15-6 15 1 45 10 45 3 0 3-7 0-15zm-653-4l-14-9 5-26 5-26h-7c-4 0-10 13-12 30l-4 30 10 4c6 2 16 5 21 5l10 1-14-9zm721-49l11-12-17 6c-9 3-16 10-16 16v9l-9-5-9-6 11 25 12 25 3-23c2-12 9-28 14-35zm32 22c10-37 2-39-11-4l-11 30h8c4 0 11-12 14-26zm-819 7l-5-10 10-6 10-6v34l7-7c17-17 4-55-18-56-9 0-18 48-11 55 9 8 14 6 7-4zm862-48l-5-18v70l5-17c2-10 2-26 0-35zm-439 1160c7-3 16-2 19 1 4 3-2 6-13 5l-19-1 13-5zm-661-38l-17-36v-69h-40v-17l-1-18-13 18-14 18-7-21c-4-11-6-35-5-53 1-17 2-46 1-63l-1-31-22 2-21 2-23 26c-13 15-26 27-29 27-10 0-5-81 6-102l11-21-16 6-16 6v-36l25-27 24-26h81v85l46 2 45 2 15 11c8 7 14 10 14 7s13 8 30 24l29 30 25-7 24-6 39 36 38 35-18 1h-19l7 31 7 32-23-17c-29-20-39-20-39-1 0 27-26 16-53-25l-17-24v-74l-14-11-13-11 14 57c7 32 16 74 19 93l6 35-9-12c-5-6-21-16-36-22l-27-11v39l19 11c11 5 30 10 44 10h24l20 23c11 12 26 32 32 45l12 22h-41v15c0 21-11 19-50-10l-35-26-10 31-11 31-17-36zm-11-193l-6-38 33 3 32 3-30-14-30-14-6 11c-4 7-9 29-12 50l-6 37h32l-7-38zm-19-58c2-7 3-21 0-31l-4-18-11 28c-6 15-16 27-22 27-5 0-10 4-10 9v9l21-5c11-3 23-12 26-19zm634 229l-1-23 28 1 27 2-22 4-22 4-4 17-5 17-1-22zm92-20c9-2 23-2 30 0l12 5h-60l18-5zm40-377l-32-22 10-15c5-7 9-33 9-56s4-53 10-67l10-26h14c7 0 19 6 25 14l12 14-19 6-20 7-5 20-6 21 20 5 19 5v118h-7c-5-1-22-11-40-24zm-96-430l27-24 27 22c14 11 25 23 23 25-2 3-15-5-27-17l-24-22-18 20c-10 11-22 20-27 20s3-11 19-24zm869 1385l-18-20 5-16 6-15h31l6 26 7 25-10 10-9 9-18-19zm-1690-50c-4-7-5-15-2-18 9-9 19 4 14 18l-4 13-8-13zm-119-58c-13-13-7-32 14-43l20-11 16 12 15 13-22 18c-24 19-33 22-43 11zm-42-124c-10-15 3-25 16-12l11 11-10 6-11 6-6-11zm-95-158c0-6 5-13 10-16l10-6v15c0 9-4 16-10 16-5 0-10-4-10-9zm-84-86l-5-15 19-10c10-5 26-10 34-10h16v38l-16 6c-26 10-42 7-48-9zm2370-103l-6-11 11-6c15-10 25 3 12 16l-11 11-6-10zm46-244c2-6 10-14 16-16l12-4-6 16c-3 9-11 16-16 16h-10l4-12zM2425 609c-4-6-5-13-2-16 7-7 27 6 27 18s-17 12-25-2zm-55-114c0-8 5-15 10-15 6 0 10 7 10 15s-4 15-10 15c-5 0-10-7-10-15zM670 505l12-15 9 6 9 5-5 10c-4 5-13 9-22 9h-15l12-15zm244-160c21-16 32-13 21 4-3 6-14 11-23 11l-17-1 19-14zm949-72l-13-5v-17c0-20 19-41 37-41h13v48l-12 9c-7 6-19 8-25 6zm112 36c-10-14-1-21 19-13l16 6-6 9c-7 12-21 11-29-2zm-414-93l-11-13 7-19c15-43 43-39 43 6v28l-14 5-15 6-10-13zm131-8l3-33 23-3 22-3v16c0 9-5 25-10 36l-11 19h-30l3-32zm-252-44v-16l15 12c8 7 15 14 15 16s-7 4-15 4h-15v-16z"/></g><g fill="#b53739" transform="matrix(.1 0 0 -.1 0 300)"><path d="M1331 2960c-496-63-920-363-1140-808-75-150-119-297-142-467l-12-90 6-155 6-155 24-105c105-443 382-795 784-995 167-82 335-128 538-146l111-9 109 9c269 24 490 101 715 249l85 56 125 125 126 126 55 85c110 166 180 332 221 523l22 102 1 195v195l-23 104c-46 205-132 400-249 564l-58 81-95 95-96 96-89 63-90 64-110 54c-132 64-225 96-365 124l-105 21-140 4-140 4-74-9zm291-141l-22-17v-84l13 5 12 4 1 34v34l17 3 17 3v-34c0-20 3-42 6-50l6-15h-93l-4 11c-2 7-6 29-9 50l-5 37h13c8 0 21 11 30 25l17 26 11-7 11-7-21-18zm122-9l-6-30h40l12-15 12-15-6-25-7-26-24-11-25-11-25 11-26 12 8 37c4 21 8 53 8 71v32h45l-6-30zm-483-6l13-16-12-18-12-19 27-20c14-12 30-21 34-21 5 0 9-4 9-10v-10h-42l-32 26-31 27-4-18-3-19 17-13 18-12-14-5c-8-2-24-6-37-9l-23-5 6 18 6 18-10 42-10 43-12 8-13 8 14 5c8 2 22 7 30 9 8 3 27 6 41 6l27 1 13-16zm270-15c14-23 10-48-12-70l-21-21-14 6-14 5v-13c0-8 6-17 13-19l12-5-30-1-30-1 3 50 4 51-12 13-11 14 18 5c10 2 33 3 51 2l34-1 9-15zm349 19c0-2-9-32-20-67-10-35-17-68-14-73l5-8h-10c-5 0-17 3-25 6l-17 6 9 12c5 6 15 32 22 58l12 46-7 11-6 11h25c14 0 26-1 26-2zm-482-20c7-7 12-18 12-25v-13h-52l5-12 4-13 22 1 22 1-4-11-4-11-27-3-27-3-15 12-14 11v47l16 15c18 19 45 21 62 4zm537-28l-7-12-10 10-10 10 7 12 7 12 10-10 10-10-7-12zm-924-141l14-9-15-10c-8-5-21-10-27-10h-13v15c0 19-39 98-53 106l-9 7 18 10 19 11 26-55c14-31 32-60 40-65zm914 104c-4-10-9-33-12-51l-6-32-21 6c-30 9-30 11-12 29l16 16v49h42l-7-17zm-836-28c8-17 19-33 25-37l11-8-15-9c-8-5-17-8-21-5-4 2-10 0-14-6-8-13-42-13-50 1l-7 10 21 23c12 12 21 26 21 30v8l-27-7-27-6 19 21 19 21 15-3 16-3 14-30zm938 0c3-9 3-19-1-22l-6-7-12 12c-7 7-18 12-25 12h-13v-51l15-5c22-9 18-24-5-24h-20l-16 25-16 25 16 25 16 25h61l6-15zm87-41l16-15-15-30-16-30 6-9 5-9-9-5-9-6-14 14c-8 8-23 16-34 18l-19 3v40h65v25h-15c-8 0-15 5-15 10v10h19c11 0 27-7 35-16zm-1220-40l5-14-19-12c-11-7-20-16-20-20 0-12 35-9 48 4l12 12v-9c0-5-7-17-17-27l-16-18h-22c-11 0-26 5-33 12l-12 12v55l21 15 21 14 13-5c8-2 16-11 19-19zm1384-10l42-36v-52l-22-23-21-23h-51l-38 26c-21 15-38 31-38 36v9l9-5 9-6 31 42 31 43-4 12-5 13h8c4 0 26-16 49-36zm-1499-34l34-50h16l16-1-35-29c-40-34-56-37-82-13l-18 16v46l20 14 20 14-13 12-14 11-6-7-7-6v9c0 11 20 34 30 34 3 0 20-23 39-50zm984-34l99-25 101-49 102-49 81-61c104-79 183-164 255-276l58-89 34-86c19-47 42-121 52-163l17-78h26l7-76 7-76-7-80-7-79-14-6-13-5-11-55c-19-89-56-188-106-284l-48-90-64-79-63-80-70-57c-38-32-107-81-154-109l-85-52-83-30c-47-17-120-38-163-48l-79-17h-260l-79 17c-43 10-116 31-163 48l-83 30-85 52c-47 28-116 77-154 109l-70 57-63 79c-103 130-169 262-210 424l-21 82-13 10-13 10-7 76-7 77 8 76 7 76h23l27 104 26 103 41 84c22 46 59 113 83 149l42 65 86 86 85 86 64 43c130 87 304 156 457 180l59 9 125-4 125-4 98-25zm631-88l10-27-19-21-18-20h-47l-16 25-16 25 16 26 17 25 32-3 32-3 9-27zm-1729-8c10-11 24-20 31-20h13l-5-15c-4-8-12-15-19-15h-13l-5-20-5-20h-33l-6 16-6 15 11 25 12 24h-13c-7 0-18-5-25-12-15-15-16-3-2 23l11 19h36l18-20zm-119-51c16-17 42-37 57-44l28-12-36-37-35-37-13 7c-47 27-60 61-32 84l15 12-6 10-6 10-19-5c-22-6-23-3-9 24 14 26 21 24 56-12zm1918-4c14-13 26-29 26-34 0-6 9-15 20-21l20-11v-16c0-8-13-31-30-49l-29-34-11 21c-7 11-10 21-8 22 30 15 44 27 46 41l3 16h-30l-19-25-20-25-12 15-12 14 28 24 27 24-7 12-8 13-27-26-27-26-12 12c-16 16-15 28 3 28h14l18 25c10 13 18 25 19 25s13-11 28-25zM538 2247l12 5v-10c0-5-9-19-20-32s-20-27-20-32c0-11-37-10-44 1-4 5-2 20 3 34l10 25-7 6-6 7-18-23-18-23v44l16 16 16 15 31-19 32-19 13 5zm2082 18v-15h-30v30h30v-15zm-52-45c-12-8-30-23-39-32l-17-16-17 18-16 18 26 6 25 6 12 19 12 19 18-12 19-11-23-15zm-2190-28l4-12h-21c-21 0-27 11-14 24 9 9 26 2 31-12zm2239-9c3-10 13-26 22-36l15-18-38-35-38-35-13 18-13 17 27 14c14 7 30 17 35 22l8 8-6 11-7 11-22-12c-12-6-27-18-32-26l-11-14-12 26-12 26h18c10 0 27 9 38 19 24 25 33 26 41 4zm-2174-20c49-32 57-41 57-67v-19l-26 26c-14 15-41 32-59 38l-32 12 5 19c6 23 5 23 55-9zm-44-57l25-14 13 5 13 5v-9c0-15-30-72-41-79l-10-6-14 12-14 12 6 29 6 29h-11c-6 0-14-9-17-20l-6-20-9 5-9 5 11 30 10 30h11c7-1 23-7 36-14zm2327-17l6-11-11-11-11-11-11 11-11 11 6 11c4 6 11 11 16 11s12-5 16-11zm-46-24l12-15-28-11c-16-6-36-17-45-25l-16-14-11 25-12 26 13-3c18-3 57 12 57 23 0 14 16 11 30-6zm-2310-65c24-24 25-48 5-77l-15-22-48 20c-26 11-55 21-64 22l-18 1v36h11c6 0 19-5 30-10l19-11v19c0 42 47 55 80 22zm2344-12c9-12 16-28 16-35v-13h-30v41l-22-3-23-3 2-33 1-33-19 17c-23 21-24 42-2 66l16 18h46l15-22zm36-97c5-11 10-26 10-35v-14l-35-12-35-12v-20l-15 12-15 12 6 10 6 9-12 14-12 15 6 15 5 15h31l12-20c7-11 17-20 22-20h8l-4 25-5 25h8c5 0 13-9 19-19zm-2410-11h18l-5-20-5-21-19 6c-11 3-28 8-39 11l-20 5v-31l24-6 25-6 10 7 11 6v-10c0-5-3-16-6-24l-6-15-30 10-30 10-11-11c-14-14-6-21 32-24l31-2v-47l-17 8c-10 4-30 8-46 9-44 3-44-2-1 144l4 13 31-6c18-3 40-6 49-6zm2445-132l7-38-13-3c-8-2-28-9-46-14l-32-11-5 15c-3 8-6 19-6 24v10l10-6c5-3 21-3 35 1l25 6v30l-22-4c-13-3-30-7-38-9l-15-4-3 20-3 20 38 2 38 2 4 12 4 12 7-14c5-8 11-31 15-51zm-2595-68c-6-10-10-24-10-30v-11l23 3 22 3-3 23-2 24 12-5 13-4-2-19-2-19 12-7c7-4 18-8 25-8h12v23c0 13-5 28-12 35l-12 12h16c9 0 20-5 23-10l7-11-7-50-7-50-14 11-13 12-56 1-55 2v15c0 8 3 32 6 52l6 36 14-5 14-5-10-18zm2562-35c14-30 28-33 28-5 0 11 4 20 9 20 11 0 24-50 16-59-8-8-88-31-93-27-7 7-12 78-7 87 4 5 13 9 21 9h14l12-25zm-193-995h14l-18-20-19-20-5 9c-3 5-26 25-49 45l-44 36-9-6c-12-7-11 3 2 27l10 20 52-46c28-25 58-45 66-45zm-89-15l13-15-17-18c-9-10-16-22-16-25 0-13 23-7 42 10l18 16v-13c0-7-7-22-17-32l-16-18h-46l-15 22c-21 30-20 44 4 68s33 25 50 5zm-70-100l23-24 8 5c20 12 7-13-20-39-30-28-55-35-66-17l-6 9 16 31 16 30h-14c-7 0-18-5-25-12-19-19-23-4-6 20l15 22h36l23-25zm-1699-5l19-11v-18c0-10-6-24-14-30l-13-11-13 15c-7 8-16 15-21 15-14 0-10-22 8-42l16-18h-16c-8 0-23 7-31 16l-16 15v21c0 25 27 58 47 58 8 0 23-5 34-10zm1589-50l-14-9 12-26 12-27 15 6 15 5v-9c0-5-10-16-22-24l-21-15-14 27c-8 15-21 32-30 39l-16 12 13 16c7 8 16 13 20 10s11 3 14 12l7 16 12-12 12-12-15-9zM789 463c41-24 42-31 16-80l-23-42-17 13-18 13 21 21c12 12 22 29 22 37v15h-30l-12-27c-7-16-13-29-14-31s-11 1-23 7l-20 11 25 27c13 14 24 32 24 39 0 19 12 18 49-3zm1321-38c0-23 37-93 55-102l15-9-30-17-30-18v21c0 12-10 39-22 60l-23 40h-12c-21 0-15 16 10 28 31 15 37 14 37-3zm105 5l6-10h-41v-22l24 6 25 6 15-15 15-16-6-15c-11-29-63-45-63-19v15l23 1 22 2-35 6-35 6-3 18-4 18 12 14c14 17 36 19 45 5zm-1165-45c0-2-11-30-25-61s-25-65-25-75v-19l-25 12-25 11 13 16c8 9 21 35 31 59l16 43-5 10-6 9h25c14 0 26-2 26-5zm-95-25l19-21-16-15-16-16-21 11-21 12v-14c0-8 10-22 23-30l22-16h-22l-23-1-20 20c-11 11-20 27-20 35s9 24 20 35l20 20h37l18-20zm960-65l17-65h20l-4-11c-2-6-21-17-42-24l-38-13-14 5c-16 6-27 42-22 70l3 18 23 10 22 10v13c0 7-7 15-15 18l-16 6 18 14c10 7 21 14 24 14s14-29 24-65zm-751 39c38-7 51-18 41-34l-6-10-23 15-23 15-6-7c-4-3-7-15-7-25v-18h54l-16-17-17-16-15 12-14 12-7-22-7-21 13-9 14-9 23 5 22 5v-10c0-6-7-13-15-16l-14-6-38 12c-21 6-45 14-53 16l-15 5 16 10 17 9 12 49 12 50-8 12-7 12 16-6c8-3 32-9 51-13zm866-14l11-20-26-12c-14-6-25-15-25-21v-9l30 4c32 5 37-1 18-20-17-17-48-15-70 5l-18 16v20c0 11 7 29 17 39l16 18h36l11-20zm-400-90v-70h21l-7-11-6-11-18 5c-9 2-24 0-33-5l-17-9-20 11-20 11v65l12 12c7 7 22 12 34 12h22l-5 20c-3 11-10 20-17 21-13 1 24 17 42 18l12 1v-70zm-247 7l22-4-22-8c-13-4-23-10-23-14 0-3-3-16-6-28l-6-23 23-1h24l-22-11-22-11-17 7-17 6 7 40 6 40h-10c-18 0-11 15 13 25l22 10 3-12c2-6 13-14 25-16zm-88 14l5-10-10-6-11-7-14 12-15 12v-10c0-6 9-16 21-22l20-11-3-22-3-22h-68l-5 13-4 13 29-7 28-7-24 26-24 26 6 15 6 16h30c16 0 32-4 36-9zm455-11c24-24 25-38 4-68l-15-22h-48l-15 16-16 15v48l22 15c30 21 44 20 68-4zm-256-17c3-10 6-34 8-53l3-35h-79l-13 14-14 13 12 14c6 8 20 14 30 14h19v30h-41l6 10 6 10h58l5-17zm236 2523c-11-30-6-46 15-46h14l6 21 7 21-16 16-15 15-11-27zm-532 29l4-26 12 4c6 2 12 13 14 25l3 22h-38l5-25zm279 8c-11-10-8-51 4-59l11-6 10 10 11 11-7 25c-6 26-16 32-29 19zm-127-13c0-5 4-10 9-10 6 0 13 5 16 10l6 10h-15c-9 0-16-4-16-10zm-293-107c-4-3-7-11-7-17v-10l12 12c6 6 9 14 7 17-3 3-9 2-12-2zm998-63l6-10 10 5c14 9 11 15-7 15h-15l6-10zm-1215 0c0-5 4-10 9-10 6 0 13 5 16 10l6 10h-15c-9 0-16-4-16-10zm1391-41l-31-42 11-13c6-8 20-14 30-14h18l15 22c9 12 16 32 16 44v22l-14 12-15 11-30-42zm-1496-29l-7-11 12-14c12-14 50-21 50-9 0 31-41 56-55 34zm585-87c-14-3-33-12-42-20l-18-16v-44l-82-6-83-5-69-23-70-23-45-31-46-31 2-31 3-31-27-7c-43-10-169-71-178-85l-8-13 47 7 46 7v-6c0-4-8-19-18-33-10-15-22-33-26-40l-7-13 46 30 46 29 90 22 90 22 32 22 32 22v58l55 17 55 18h121l122 1 11 14 11 13-6 32-6 31h194l-6-34-7-35 20-10 20-11h227l60-20 59-20v-63l45-22c25-13 77-30 117-40l72-17 47-30 47-29-28 46-27 46 49-6 48-6-28 23-27 24-80 29-79 29 6 28 6 29-19 15c-66 52-151 80-294 98l-95 12-1 23-1 23-17 16-17 17-172 2c-95 1-183-1-197-4zm126-57l7-29-16 6-16 6-5-12-4-12-1 27c-1 14 2 34 5 43l7 16 8-8c4-4 11-21 15-37zm46 9l-4-35h-18v61l-10-6-10-6v21h46l-4-35zm63-2l1-33h-8c-4 0-8 6-9 13l-1 12-5-12c-2-7-9-13-14-13h-9v71l23-3 22-3v-32zm35-4v-40l-10 6-10 6v28c0 24 7 41 17 41 2 0 3-18 3-41zm-190 23c0-4-6-20-12-35-14-28-28-36-28-14 0 6-3 22-6 35l-6 22h26c14 0 26-4 26-8zm244-24c7-34 0-50-13-29l-9 13-4-13c-3-8-8-11-12-8l-6 6 11 31c14 41 25 41 33 0zm-454-58l-12-7 16-6 16-6v-15c0-8-5-18-11-22l-11-6-11 12-12 13 13-7 12-7v9c0 6-7 12-15 16-8 3-15 12-15 20 0 15 20 26 34 18l8-4-12-8zm-34-22l6-20-15-15-14-14-17 16-16 16-1-23-1-23-14 34-15 33 7 7 7 6 4-13 5-13 14 20 15 20 14-5c8-3 17-15 21-26zm604 1v-31l13 4 12 5 3 26 3 27h19l1-22 2-23 4 23 5 23 16-3 17-3v-17c0-9 4-20 8-24l7-7v51l20-5c11-3 20-10 20-15v-9l-12 7-11 7 8-13 8-12-14-9-14-9 15-11 15-11-34 6c-18 3-53 6-76 6h-43l-4 35-4 35h16v-31zm195 1c3-5 15-10 25-10h19l10-17c5-10 13-17 18-16l8 3-3-33-3-32 19 29 20 28 11-20c15-28 14-47-4-62l-15-12-29 30-30 30-7-7-7-6 5 15 6 15 11-3 12-2-12 22-12 23-10-28c-5-15-12-27-17-27h-9l9 30 9 30h-8c-4 0-12-5-18-11l-11-11 5-17 5-16-15 18-15 18-5-13-5-13-1 22c-2 44 26 72 44 43zm-889-24l6-25-7-10c-3-6-12-11-20-11h-13l-10 29c-11 33-7 41 19 41h19l6-24zm54 29c0-11 5-27 10-35l10-15v20c0 11-5 27-10 35l-10 15v-20zm936-101c-9-22 3-32 14-14 12 19 12 30 1 30-5 0-12-7-15-16zm-1026 80c0-5 7-19 15-30l14-19 1 11c0 5-7 19-15 30l-14 19-1-11zm-11-261c5-10 25-34 45-52l36-35v-286h90v-97l63-59 62-59 5 77c3 43 3 104 2 137l-4 59-79 84c-43 46-79 79-79 73-1-5-8 3-16 18-9 16-13 31-11 34 8 7 47-20 52-37 7-21 135-147 135-134s-111 158-139 183c-10 9-21 26-25 39l-7 22h10c5 0 18-12 28-26s63-86 118-160l100-135 3 20 3 20-73 122c-94 156-101 169-94 176 8 8 47-27 41-37-3-5 106-204 121-219 2-2 4 62 4 142v147h-401l10-17zm561-133c0-82 2-150 4-150s31 47 65 105 64 105 67 105c5 0-16-37-97-174l-47-79 5-13c3-8 9-14 15-14h9l-6-10-6-10h9c11 0 25 26 27 50 1 8 40 65 86 127s92 124 102 138c22 30 29 29 20-3l-5-22h-27l-6-19c-3-10-32-51-64-92l-59-74 5-8 5-9 69 68c38 38 69 74 69 80 0 12 29 28 37 20 2-2-39-48-91-102l-95-99-1-140v-139l65 64 65 64v96h90v286l45 44c25 24 45 48 45 52v8h-400v-150zm163 92l-5-22h-14c-18 0-18 9 3 32 20 22 24 19 16-10zm-131-304l-12-12v10c0 6 3 14 7 17 3 4 9 5 12 2 2-3-1-11-7-17zm-832 96v-16l12 4c6 2 14 10 16 16l4 12h-32v-16zm595-104c10-11 20-20 22-20s-1 9-7 20-16 20-22 20h-11l18-20zm235-124c-20-11-51-30-69-41-19-11-45-30-59-42-14-13-31-23-38-23-8 0-14-4-14-10 0-14 12-12 38 6 13 9 26 14 29 11 2-3-9-13-25-21l-30-16-7-28-6-29-25-12-25-11 6-10c3-6 13-10 21-10h15l-3-17-3-18-32-3-32-3-15 30c-9 16-16 34-16 39 0 6-30 40-67 76l-68 66h-85v-265l19-41 19-41 33-24 34-24 102-3 103-4v162h39l3-37 3-38h40l10 23c5 12 12 22 15 22 7 0-7 226-14 239l-6 9 75 47c41 25 75 51 75 56s-1 9-2 8c-2-1-19-11-38-23zm-37-57l-32-21 5-46c3-26 7-61 10-79l5-31 16-6 16-7 11 11 11 11-16 12c-9 7-19 22-23 35l-7 22h41v60c0 33-1 60-2 60-2 0-17-10-35-21zm-193-46v-53h50v13c0 6-12 30-25 52l-25 40v-52zm358-33l-68-67v-14c0-8-7-25-16-38l-17-23-38 5-39 5v-9c0-5 5-9 11-9h10l-3-90-3-90h181l44 23 45 22 23 45 22 44v266l-42-2-43-2-67-66zm-912 33c-11-11-6-23 9-23 8 0 15 4 15 9 0 13-16 22-24 14zm-16-58c0-8 5-15 10-15 6 0 10 7 10 15s-4 15-10 15c-5 0-10-7-10-15zm-40-140c0-8 5-15 10-15 6 0 10 7 10 15s-4 15-10 15c-5 0-10-7-10-15zm-80-150c0-6 4-25 10-44l9-33-22 7c-12 4-33 9-46 12l-24 6 26-34c14-19 33-54 43-79 22-57 66-118 101-141l27-18 21 4 20 5 31-48 31-47 34-23 34-24 56 4 55 4 32 23 33 23-3 35-3 36 65 18c36 11 80 19 99 19h33l-11-14c-7-8-25-17-40-21l-28-6 1-29 1-30 15 1c8 0 24 4 35 8l20 8 20-13 20-13 40 15c52 18 84 18 130-2l37-15 18 16 18 16 37-10 36-10-6 19-6 19 17 9 16 9-46 13-46 13v23l63-8c34-4 82-14 107-21l45-14v-76l27-20 27-20 54-5 54-4 31 16 31 16 38 55 38 54 32 1h31l41 46 40 46 17 46c9 26 30 64 46 84l29 38h-16c-9 0-30-7-47-16l-31-16 7 29c4 15 9 37 12 48l5 20-41-45c-23-25-49-58-58-73l-17-28-26 6-27 6-33-41c-19-23-43-53-55-67l-20-25-40 20c-45 23-160 58-219 67-22 3-118 9-213 12l-173 6-107-13-107-12-65-20c-36-11-84-29-108-40-23-12-44-19-46-17-1 2-17 25-35 52-18 26-43 55-57 63l-24 16-19-5-20-5-25 37c-37 53-85 108-86 96zm721-194l-14-9 7-28 6-29-14 19-15 19 10 18c5 11 15 19 22 19h12l-14-9zm58-36l1-11h-41l13 11 14 10-3 20-3 20 9-20c5-11 10-25 10-30zm48-2l-5-18v70l5-17c2-10 2-26 0-35zm30 0l-5-18v70l5-17c2-10 2-26 0-35zm29 18l-1-30-8 9-9 8 7 21c9 29 12 26 11-8zm40-39c-4-3-6 0-6 7v12l-8-5-9-5v64l14-34c8-18 12-36 9-39zm23 25l-1-32-8 25c-4 14-8 31-9 38l-1 13 10-6 10-6-1-32zm-309-12v-20l-10 15c-5 8-10 24-10 35v20l10-15c5-8 10-24 10-35zm37-2l-5-18v70l5-17c2-10 2-26 0-35zm290 0l-5-18v70l5-17c2-10 2-26 0-35zm33 17v-30h-17l5 30c2 17 6 30 8 30s4-13 4-30zm-418-10l5-30h-17v30c0 17 2 30 4 30s6-13 8-30zm26-1c1-37-5-35-12 4l-5 27h8c4 0 8-14 9-31zm426 9c10-39 7-44-9-14-17 33-18 36-6 36 5 0 11-10 15-22zm36-13v-35h-16l4 35c2 19 6 35 8 35s4-16 4-35zm-538-5l5-30h-9c-4 0-8 6-8 14s-3 21-6 30l-6 16h20l4-30zm-55-17l1-38-8 25c-11 34-12 50-2 50h8l1-37zm28 28l5-10-10-6-10-6v15c0 18 6 21 15 7zm589-6l-6-15 12-15 12-15h-11c-6 0-14 7-17 15-6 15 1 45 10 45 3 0 3-7 0-15zm-653-4l-14-9 5-26 5-26h-7c-4 0-10 13-12 30l-4 30 10 4c6 2 16 5 21 5l10 1-14-9zm721-49l11-12-17 6c-9 3-16 10-16 16v9l-9-5-9-6 11 25 12 25 3-23c2-12 9-28 14-35zm32 22c10-37 2-39-11-4l-11 30h8c4 0 11-12 14-26zm-819 7l-5-10 10-6 10-6v34l7-7c17-17 4-55-18-56-9 0-18 48-11 55 9 8 14 6 7-4zm862-48l-5-18v70l5-17c2-10 2-26 0-35zm-360 21c-8-9-137-10-150-2l-12 8h84c46 0 82-3 78-6zm762 1625l-11-21 11-11 10-10 16 13c8 7 15 21 15 31v19h-29l-12-21zm-1683-38c-4-7-5-15-2-18 9-9 19 4 14 18l-4 13-8-13zm-122-62l-6-11 21-21 21-21 12 12 12 12-19 20c-20 23-31 25-41 9zm-33-125l1-19 5 13c3 7 2 16-1 19-3 4-6-2-5-13zm-96-154l-6-10h10c6 0 11 5 11 10 0 6-2 10-4 10-3 0-8-4-11-10zm-82-86l-6-16 14-9c19-12 36-11 45 3l7 11-18 14c-24 17-34 17-42-3zm2367-114c0-5 5-10 11-10h10l-6 10c-3 6-8 10-11 10-2 0-4-4-4-10zm46-228l-6-11 11-6c14-9 20-2 10 14l-8 13-7-10zM2425 611l-5-10 8-5c10-6 22 3 22 16 0 11-17 10-25-1zm-55-121c0-5 5-10 10-10 6 0 10 5 10 10 0 6-4 10-10 10-5 0-10-4-10-10zM670 511c0-6 5-13 10-16l10-6v15c0 9-4 16-10 16-5 0-10-4-10-9zm240-161c0-5 7-10 16-10h15l-6 10c-3 6-10 10-16 10-5 0-9-4-9-10zm940-91c0-6 5-19 10-30l11-19h29v14c0 8-3 21-6 30l-6 16h-38v-11zm130 41v-9l15 5c8 4 15 8 15 10s-7 4-15 4-15-4-15-10zm-418-107l3-28 18-3 17-3v61h-41l3-27zm134 40c-11-12-6-41 9-53l16-13 10 10 11 11-6 20c-7 21-30 35-40 25zm-251-63l-6-10h10c6 0 11 5 11 10 0 6-2 10-4 10-3 0-8-4-11-10z"/></g><g fill="#1a335f" transform="matrix(.1 0 0 -.1 0 300)"><path d="M1331 2960c-496-63-920-363-1140-808-75-150-119-297-142-467l-12-90 6-155 6-155 24-105c105-443 382-795 784-995 167-82 335-128 538-146l111-9 109 9c269 24 490 101 715 249l85 56 125 125 126 126 55 85c110 166 180 332 221 523l22 102 1 195v195l-23 104c-46 205-132 400-249 564l-58 81-95 95-96 96-89 63-90 64-110 54c-132 64-225 96-365 124l-105 21-140 4-140 4-74-9zm291-141l-22-17v-84l13 5 12 4 1 34v34l17 3 17 3v-34c0-20 3-42 6-50l6-15h-93l-4 11c-2 7-6 29-9 50l-5 37h13c8 0 21 11 30 25l17 26 11-7 11-7-21-18zm122-9l-6-30h40l12-15 12-15-6-25-7-26-24-11-25-11-25 11-26 12 8 37c4 21 8 53 8 71v32h45l-6-30zm-483-6l13-16-12-18-12-19 27-20c14-12 30-21 34-21 5 0 9-4 9-10v-10h-42l-32 26-31 27-4-18-3-19 17-13 18-12-14-5c-8-2-24-6-37-9l-23-5 6 18 6 18-10 42-10 43-12 8-13 8 14 5c8 2 22 7 30 9 8 3 27 6 41 6l27 1 13-16zm270-15c14-23 10-48-12-70l-21-21-14 6-14 5v-13c0-8 6-17 13-19l12-5-30-1-30-1 3 50 4 51-12 13-11 14 18 5c10 2 33 3 51 2l34-1 9-15zm349 19c0-2-9-32-20-67-10-35-17-68-14-73l5-8h-10c-5 0-17 3-25 6l-17 6 9 12c5 6 15 32 22 58l12 46-7 11-6 11h25c14 0 26-1 26-2zm-482-20c7-7 12-18 12-25v-13h-52l5-12 4-13 22 1 22 1-4-11-4-11-27-3-27-3-15 12-14 11v47l16 15c18 19 45 21 62 4zm537-28l-7-12-10 10-10 10 7 12 7 12 10-10 10-10-7-12zm-924-141l14-9-15-10c-8-5-21-10-27-10h-13v15c0 19-39 98-53 106l-9 7 18 10 19 11 26-55c14-31 32-60 40-65zm914 104c-4-10-9-33-12-51l-6-32-21 6c-30 9-30 11-12 29l16 16v49h42l-7-17zm-836-28c8-17 19-33 25-37l11-8-15-9c-8-5-17-8-21-5-4 2-10 0-14-6-8-13-42-13-50 1l-7 10 21 23c12 12 21 26 21 30v8l-27-7-27-6 19 21 19 21 15-3 16-3 14-30zm938 0c3-9 3-19-1-22l-6-7-12 12c-7 7-18 12-25 12h-13v-51l15-5c22-9 18-24-5-24h-20l-16 25-16 25 16 25 16 25h61l6-15zm87-41l16-15-15-30-16-30 6-9 5-9-9-5-9-6-14 14c-8 8-23 16-34 18l-19 3v40h65v25h-15c-8 0-15 5-15 10v10h19c11 0 27-7 35-16zm-1220-40l5-14-19-12c-11-7-20-16-20-20 0-12 35-9 48 4l12 12v-9c0-5-7-17-17-27l-16-18h-22c-11 0-26 5-33 12l-12 12v55l21 15 21 14 13-5c8-2 16-11 19-19zm1384-10l42-36v-52l-22-23-21-23h-51l-38 26c-21 15-38 31-38 36v9l9-5 9-6 31 42 31 43-4 12-5 13h8c4 0 26-16 49-36zm-1499-34l34-50h16l16-1-35-29c-40-34-56-37-82-13l-18 16v46l20 14 20 14-13 12-14 11-6-7-7-6v9c0 11 20 34 30 34 3 0 20-23 39-50zm1006 6l100-26 100-49 101-50 80-59c187-139 324-332 399-562l28-85 1-245v-245l-32-94c-88-255-235-446-456-592l-89-59-101-39c-118-46-223-69-351-78l-92-6-99 13c-438 55-793 349-929 770l-28 85-2 230-3 230 25 84c13 46 37 116 54 155l30 71 64 95 63 95 84 81c167 160 353 257 575 299l78 14 150-3 150-4 100-26zm609-128l10-27-19-21-18-20h-47l-16 25-16 25 16 26 17 25 32-3 32-3 9-27zm-1729-8c10-11 24-20 31-20h13l-5-15c-4-8-12-15-19-15h-13l-5-20-5-20h-33l-6 16-6 15 11 25 12 24h-13c-7 0-18-5-25-12-15-15-16-3-2 23l11 19h36l18-20zm-119-51c16-17 42-37 57-44l28-12-36-37-35-37-13 7c-47 27-60 61-32 84l15 12-6 10-6 10-19-5c-22-6-23-3-9 24 14 26 21 24 56-12zm1918-4c14-13 26-29 26-34 0-6 9-15 20-21l20-11v-16c0-8-13-31-30-49l-29-34-11 21c-7 11-10 21-8 22 30 15 44 27 46 41l3 16h-30l-19-25-20-25-12 15-12 14 28 24 27 24-7 12-8 13-27-26-27-26-12 12c-16 16-15 28 3 28h14l18 25c10 13 18 25 19 25s13-11 28-25zM538 2247l12 5v-10c0-5-9-19-20-32s-20-27-20-32c0-11-37-10-44 1-4 5-2 20 3 34l10 25-7 6-6 7-18-23-18-23v44l16 16 16 15 31-19 32-19 13 5zm2082 18v-15h-30v30h30v-15zm-52-45c-12-8-30-23-39-32l-17-16-17 18-16 18 26 6 25 6 12 19 12 19 18-12 19-11-23-15zm-2190-28l4-12h-21c-21 0-27 11-14 24 9 9 26 2 31-12zm2239-9c3-10 13-26 22-36l15-18-38-35-38-35-13 18-13 17 27 14c14 7 30 17 35 22l8 8-6 11-7 11-22-12c-12-6-27-18-32-26l-11-14-12 26-12 26h18c10 0 27 9 38 19 24 25 33 26 41 4zm-2174-20c49-32 57-41 57-67v-19l-26 26c-14 15-41 32-59 38l-32 12 5 19c6 23 5 23 55-9zm-44-57l25-14 13 5 13 5v-9c0-15-30-72-41-79l-10-6-14 12-14 12 6 29 6 29h-11c-6 0-14-9-17-20l-6-20-9 5-9 5 11 30 10 30h11c7-1 23-7 36-14zm2327-17l6-11-11-11-11-11-11 11-11 11 6 11c4 6 11 11 16 11s12-5 16-11zm-46-24l12-15-28-11c-16-6-36-17-45-25l-16-14-11 25-12 26 13-3c18-3 57 12 57 23 0 14 16 11 30-6zm-2310-65c24-24 25-48 5-77l-15-22-48 20c-26 11-55 21-64 22l-18 1v36h11c6 0 19-5 30-10l19-11v19c0 42 47 55 80 22zm2344-12c9-12 16-28 16-35v-13h-30v41l-22-3-23-3 2-33 1-33-19 17c-23 21-24 42-2 66l16 18h46l15-22zm36-97c5-11 10-26 10-35v-14l-35-12-35-12v-20l-15 12-15 12 6 10 6 9-12 14-12 15 6 15 5 15h31l12-20c7-11 17-20 22-20h8l-4 25-5 25h8c5 0 13-9 19-19zm-2410-11h18l-5-20-5-21-19 6c-11 3-28 8-39 11l-20 5v-31l24-6 25-6 10 7 11 6v-10c0-5-3-16-6-24l-6-15-30 10-30 10-11-11c-14-14-6-21 32-24l31-2v-47l-17 8c-10 4-30 8-46 9-44 3-44-2-1 144l4 13 31-6c18-3 40-6 49-6zm2445-132l7-38-13-3c-8-2-28-9-46-14l-32-11-5 15c-3 8-6 19-6 24v10l10-6c5-3 21-3 35 1l25 6v30l-22-4c-13-3-30-7-38-9l-15-4-3 20-3 20 38 2 38 2 4 12 4 12 7-14c5-8 11-31 15-51zm-2595-68c-6-10-10-24-10-30v-11l23 3 22 3-3 23-2 24 12-5 13-4-2-19-2-19 12-7c7-4 18-8 25-8h12v23c0 13-5 28-12 35l-12 12h16c9 0 20-5 23-10l7-11-7-50-7-50-14 11-13 12-56 1-55 2v15c0 8 3 32 6 52l6 36 14-5 14-5-10-18zm2562-35c14-30 28-33 28-5 0 11 4 20 9 20 11 0 24-50 16-59-8-8-88-31-93-27-7 7-12 78-7 87 4 5 13 9 21 9h14l12-25zM340 1500v-20H100v40h240v-20zm2570 0v-20h-240v40h240v-20zm-351-850h14l-18-20-19-20-5 9c-3 5-26 25-49 45l-44 36-9-6c-12-7-11 3 2 27l10 20 52-46c28-25 58-45 66-45zm-89-15l13-15-17-18c-9-10-16-22-16-25 0-13 23-7 42 10l18 16v-13c0-7-7-22-17-32l-16-18h-46l-15 22c-21 30-20 44 4 68s33 25 50 5zm-70-100l23-24 8 5c20 12 7-13-20-39-30-28-55-35-66-17l-6 9 16 31 16 30h-14c-7 0-18-5-25-12-19-19-23-4-6 20l15 22h36l23-25zm-1699-5l19-11v-18c0-10-6-24-14-30l-13-11-13 15c-7 8-16 15-21 15-14 0-10-22 8-42l16-18h-16c-8 0-23 7-31 16l-16 15v21c0 25 27 58 47 58 8 0 23-5 34-10zm1589-50l-14-9 12-26 12-27 15 6 15 5v-9c0-5-10-16-22-24l-21-15-14 27c-8 15-21 32-30 39l-16 12 13 16c7 8 16 13 20 10s11 3 14 12l7 16 12-12 12-12-15-9zM789 463c41-24 42-31 16-80l-23-42-17 13-18 13 21 21c12 12 22 29 22 37v15h-30l-12-27c-7-16-13-29-14-31s-11 1-23 7l-20 11 25 27c13 14 24 32 24 39 0 19 12 18 49-3zm1321-38c0-23 37-93 55-102l15-9-30-17-30-18v21c0 12-10 39-22 60l-23 40h-12c-21 0-15 16 10 28 31 15 37 14 37-3zm105 5l6-10h-41v-22l24 6 25 6 15-15 15-16-6-15c-11-29-63-45-63-19v15l23 1 22 2-35 6-35 6-3 18-4 18 12 14c14 17 36 19 45 5zm-1165-45c0-2-11-30-25-61s-25-65-25-75v-19l-25 12-25 11 13 16c8 9 21 35 31 59l16 43-5 10-6 9h25c14 0 26-2 26-5zm-95-25l19-21-16-15-16-16-21 11-21 12v-14c0-8 10-22 23-30l22-16h-22l-23-1-20 20c-11 11-20 27-20 35s9 24 20 35l20 20h37l18-20zm960-65l17-65h20l-4-11c-2-6-21-17-42-24l-38-13-14 5c-16 6-27 42-22 70l3 18 23 10 22 10v13c0 7-7 15-15 18l-16 6 18 14c10 7 21 14 24 14s14-29 24-65zm-751 39c38-7 51-18 41-34l-6-10-23 15-23 15-6-7c-4-3-7-15-7-25v-18h54l-16-17-17-16-15 12-14 12-7-22-7-21 13-9 14-9 23 5 22 5v-10c0-6-7-13-15-16l-14-6-38 12c-21 6-45 14-53 16l-15 5 16 10 17 9 12 49 12 50-8 12-7 12 16-6c8-3 32-9 51-13zm866-14l11-20-26-12c-14-6-25-15-25-21v-9l30 4c32 5 37-1 18-20-17-17-48-15-70 5l-18 16v20c0 11 7 29 17 39l16 18h36l11-20zm-400-90v-70h21l-7-11-6-11-18 5c-9 2-24 0-33-5l-17-9-20 11-20 11v65l12 12c7 7 22 12 34 12h22l-5 20c-3 11-10 20-17 21-13 1 24 17 42 18l12 1v-70zm-247 7l22-4-22-8c-13-4-23-10-23-14 0-3-3-16-6-28l-6-23 23-1h24l-22-11-22-11-17 7-17 6 7 40 6 40h-10c-18 0-11 15 13 25l22 10 3-12c2-6 13-14 25-16zm-88 14l5-10-10-6-11-7-14 12-15 12v-10c0-6 9-16 21-22l20-11-3-22-3-22h-68l-5 13-4 13 29-7 28-7-24 26-24 26 6 15 6 16h30c16 0 32-4 36-9zm455-11c24-24 25-38 4-68l-15-22h-48l-15 16-16 15v48l22 15c30 21 44 20 68-4zm-256-17c3-10 6-34 8-53l3-35h-79l-13 14-14 13 12 14c6 8 20 14 30 14h19v30h-41l6 10 6 10h58l5-17zm236 2523c-11-30-6-46 15-46h14l6 21 7 21-16 16-15 15-11-27zm-532 29l4-26 12 4c6 2 12 13 14 25l3 22h-38l5-25zm279 8c-11-10-8-51 4-59l11-6 10 10 11 11-7 25c-6 26-16 32-29 19zm-127-13c0-5 4-10 9-10 6 0 13 5 16 10l6 10h-15c-9 0-16-4-16-10zm-293-107c-4-3-7-11-7-17v-10l12 12c6 6 9 14 7 17-3 3-9 2-12-2zm998-63l6-10 10 5c14 9 11 15-7 15h-15l6-10zm-1215 0c0-5 4-10 9-10 6 0 13 5 16 10l6 10h-15c-9 0-16-4-16-10zm1391-41l-31-42 11-13c6-8 20-14 30-14h18l15 22c9 12 16 32 16 44v22l-14 12-15 11-30-42zm-1496-29l-7-11 12-14c12-14 50-21 50-9 0 31-41 56-55 34zm585-87c-14-3-33-12-42-20l-18-16v-44l-82-6-83-5-69-23-70-23-45-31-46-31 2-31 3-31-27-7c-43-10-169-71-178-85l-8-13 47 7 46 7v-6c0-4-8-19-18-33-10-15-22-33-26-40l-7-13 46 30 46 29 90 22 90 22 32 22 32 22v58l55 17 55 18h121l122 1 11 14 11 13-6 32-6 31h194l-6-34-7-35 20-10 20-11h227l60-20 59-20v-63l45-22c25-13 77-30 117-40l72-17 47-30 47-29-28 46-27 46 49-6 48-6-28 23-27 24-80 29-79 29 6 28 6 29-19 15c-66 52-151 80-294 98l-95 12-1 23-1 23-17 16-17 17-172 2c-95 1-183-1-197-4zm126-57l7-29-16 6-16 6-5-12-4-12-1 27c-1 14 2 34 5 43l7 16 8-8c4-4 11-21 15-37zm46 9l-4-35h-18v61l-10-6-10-6v21h46l-4-35zm63-2l1-33h-8c-4 0-8 6-9 13l-1 12-5-12c-2-7-9-13-14-13h-9v71l23-3 22-3v-32zm35-4v-40l-10 6-10 6v28c0 24 7 41 17 41 2 0 3-18 3-41zm-190 23c0-4-6-20-12-35-14-28-28-36-28-14 0 6-3 22-6 35l-6 22h26c14 0 26-4 26-8zm244-24c7-34 0-50-13-29l-9 13-4-13c-3-8-8-11-12-8l-6 6 11 31c14 41 25 41 33 0zm-454-58l-12-7 16-6 16-6v-15c0-8-5-18-11-22l-11-6-11 12-12 13 13-7 12-7v9c0 6-7 12-15 16-8 3-15 12-15 20 0 15 20 26 34 18l8-4-12-8zm-34-22l6-20-15-15-14-14-17 16-16 16-1-23-1-23-14 34-15 33 7 7 7 6 4-13 5-13 14 20 15 20 14-5c8-3 17-15 21-26zm604 1v-31l13 4 12 5 3 26 3 27h19l1-22 2-23 4 23 5 23 16-3 17-3v-17c0-9 4-20 8-24l7-7v51l20-5c11-3 20-10 20-15v-9l-12 7-11 7 8-13 8-12-14-9-14-9 15-11 15-11-34 6c-18 3-53 6-76 6h-43l-4 35-4 35h16v-31zm195 1c3-5 15-10 25-10h19l10-17c5-10 13-17 18-16l8 3-3-33-3-32 19 29 20 28 11-20c15-28 14-47-4-62l-15-12-29 30-30 30-7-7-7-6 5 15 6 15 11-3 12-2-12 22-12 23-10-28c-5-15-12-27-17-27h-9l9 30 9 30h-8c-4 0-12-5-18-11l-11-11 5-17 5-16-15 18-15 18-5-13-5-13-1 22c-2 44 26 72 44 43zm-889-24l6-25-7-10c-3-6-12-11-20-11h-13l-10 29c-11 33-7 41 19 41h19l6-24zm54 29c0-11 5-27 10-35l10-15v20c0 11-5 27-10 35l-10 15v-20zm936-101c-9-22 3-32 14-14 12 19 12 30 1 30-5 0-12-7-15-16zm-1026 80c0-5 7-19 15-30l14-19 1 11c0 5-7 19-15 30l-14 19-1-11zm-11-261c5-10 25-34 45-52l36-35v-286h90v-97l63-59 62-59 5 77c3 43 3 104 2 137l-4 59-79 84c-43 46-79 79-79 73-1-5-8 3-16 18-9 16-13 31-11 34 8 7 47-20 52-37 7-21 135-147 135-134s-111 158-139 183c-10 9-21 26-25 39l-7 22h10c5 0 18-12 28-26s63-86 118-160l100-135 3 20 3 20-73 122c-94 156-101 169-94 176 8 8 47-27 41-37-3-5 106-204 121-219 2-2 4 62 4 142v147h-401l10-17zm908-41l-48-48 4-145 3-144 2 145 2 144 47 48c26 26 45 48 42 48s-26-22-52-48zm-204-162l-51-65 5-9 6-8 49 49 50 50-4 24-3 24-52-65zm15-47l-68-69v-278l64 63 64 64 7 101c4 55 5 120 3 144l-3 43-67-68zm-128-227c-20-11-51-30-69-41-19-11-45-30-59-42-14-13-31-23-37-23-7 0-15-7-19-15l-6-15 21 11c11 6 23 8 27 5 3-3 0-6-7-6h-11l-11-27-10-27 10-21 11-20 2-80 3-80h40l10 23c5 12 12 22 16 22 3 0 4 13 1 30l-4 29-21-2-21-2 2 90 1 90 15-1 16-2-5 8-5 8 75 47c41 25 75 51 75 56s-1 9-2 8c-2-1-19-11-38-23zm-506-201v-140l3 73c2 40 2 103 0 140l-3 67v-140zm441 125l-6-10h10c6 0 11 5 11 10 0 6-2 10-4 10-3 0-8-4-11-10zm255-77v-88l-18-34c-9-19-29-43-43-54l-26-19h-75l-28 21-28 20-4-79-3-80h181l44 23 45 22 23 45 22 44v266h-90v-87zm-607 12v-70l4 38c2 20 2 52 0 70l-4 32v-70zm202-68l-18-14 9-5c5-3 17-8 27-11l17-6v24c0 28-8 31-35 12zm176-11l-12-14 17-6 17-7 10 10 9 9-6 11c-10 15-21 14-35-3zm-177-98l-19-23 23 19c21 18 27 26 19 26-2 0-12-10-23-22zm-249-98c10-11 20-20 23-20s-3 9-13 20-20 20-23 20 3-9 13-20zm42-31c7-7 15-10 18-7s-2 9-12 12l-18 7 12-12zm86-16c26-2 68-2 95 0l47 3h-190l48-3zm1056 1346l-11-21 11-11 10-10 16 13c8 7 15 21 15 31v19h-29l-12-21zm-1683-38c-4-7-5-15-2-18 9-9 19 4 14 18l-4 13-8-13zm-122-62l-6-11 21-21 21-21 12 12 12 12-19 20c-20 23-31 25-41 9zm-33-125l1-19 5 13c3 7 2 16-1 19-3 4-6-2-5-13zm-96-154l-6-10h10c6 0 11 5 11 10 0 6-2 10-4 10-3 0-8-4-11-10zm-82-86l-6-16 14-9c19-12 36-11 45 3l7 11-18 14c-24 17-34 17-42-3zm2367-114c0-5 5-10 11-10h10l-6 10c-3 6-8 10-11 10-2 0-4-4-4-10zm46-228l-6-11 11-6c14-9 20-2 10 14l-8 13-7-10zM2425 611l-5-10 8-5c10-6 22 3 22 16 0 11-17 10-25-1zm-55-121c0-5 5-10 10-10 6 0 10 5 10 10 0 6-4 10-10 10-5 0-10-4-10-10zM670 511c0-6 5-13 10-16l10-6v15c0 9-4 16-10 16-5 0-10-4-10-9zm240-161c0-5 7-10 16-10h15l-6 10c-3 6-10 10-16 10-5 0-9-4-9-10zm940-91c0-6 5-19 10-30l11-19h29v14c0 8-3 21-6 30l-6 16h-38v-11zm130 41v-9l15 5c8 4 15 8 15 10s-7 4-15 4-15-4-15-10zm-418-107l3-28 18-3 17-3v61h-41l3-27zm134 40c-11-12-6-41 9-53l16-13 10 10 11 11-6 20c-7 21-30 35-40 25zm-251-63l-6-10h10c6 0 11 5 11 10 0 6-2 10-4 10-3 0-8-4-11-10z"/></g></g></svg>